/* XPM */
static char *_f9e2a0034ad4986f394e8638076885b35wBrN6N33x5EOpT[] = {
/* columns rows colors chars-per-pixel */
"64 64 254 2 ",
"   c #0A0504",
".  c #1C0402",
"X  c #160808",
"o  c #18110D",
"O  c #120E15",
"+  c #1B1511",
"@  c #1B1817",
"#  c #260903",
"$  c #340C06",
"%  c #2B1404",
"&  c #2B1507",
"*  c #361708",
"=  c #290B15",
"-  c #3A0A17",
";  c #261B17",
":  c #361615",
">  c #34200C",
",  c #3B230D",
"<  c #27221B",
"1  c #382717",
"2  c #3F331F",
"3  c #341425",
"4  c #172121",
"5  c #142935",
"6  c #292823",
"7  c #383327",
"8  c #323032",
"9  c #441909",
"0  c #430D19",
"q  c #531815",
"w  c #601A14",
"e  c #47220C",
"r  c #54280D",
"t  c #56350D",
"y  c #472A16",
"u  c #572C14",
"i  c #49331A",
"p  c #4B341C",
"a  c #59351A",
"s  c #6F3215",
"d  c #66381A",
"f  c #491528",
"g  c #53192C",
"h  c #4A1732",
"j  c #561C38",
"k  c #463928",
"l  c #563B24",
"z  c #532B31",
"x  c #463936",
"c  c #673B24",
"v  c #793A28",
"b  c #692C31",
"n  c #3A443B",
"m  c #6D4F1A",
"M  c #73611B",
"N  c #594428",
"B  c #4C4433",
"V  c #494537",
"C  c #564736",
"Z  c #564C34",
"A  c #664628",
"S  c #764827",
"D  c #685828",
"F  c #795326",
"G  c #664A34",
"H  c #774C32",
"J  c #675537",
"K  c #775737",
"L  c #75642F",
"P  c #0D3B4F",
"I  c #323848",
"U  c #5C2545",
"Y  c #582F54",
"T  c #65254A",
"R  c #6A2A54",
"E  c #6F2F57",
"W  c #723259",
"Q  c #384953",
"!  c #0F4860",
"~  c #344F70",
"^  c #3A636C",
"/  c #4D5050",
"(  c #695847",
")  c #73564A",
"_  c #73684C",
"`  c #796A58",
"'  c #4B576E",
"]  c #47586A",
"[  c #645E79",
"{  c #536677",
"}  c #71716C",
"|  c #912E16",
" . c #A53514",
".. c #B73B18",
"X. c #CB3F18",
"o. c #8C4915",
"O. c #B15114",
"+. c #9A6E1A",
"@. c #B26717",
"#. c #854C29",
"$. c #894A2F",
"%. c #87552A",
"&. c #95542C",
"*. c #875836",
"=. c #975A36",
"-. c #B84928",
";. c #A7522C",
":. c #B85436",
">. c #8E712E",
",. c #8A6337",
"<. c #99663A",
"1. c #A8663A",
"2. c #AE7037",
"3. c #C7691C",
"4. c #90594A",
"5. c #886846",
"6. c #976946",
"7. c #8D724F",
"8. c #997649",
"9. c #886855",
"0. c #897559",
"q. c #977756",
"w. c #A86B45",
"e. c #B76942",
"r. c #A97549",
"t. c #BC7444",
"y. c #B77549",
"u. c #BB7A4B",
"i. c #A86659",
"p. c #B36953",
"a. c #A87854",
"s. c #B67C57",
"d. c #8A7866",
"f. c #8A716B",
"g. c #937B65",
"h. c #C27644",
"j. c #C47846",
"k. c #C57C4A",
"l. c #CB7D4B",
"z. c #CB7B51",
"x. c #E17A4F",
"c. c #7B8174",
"v. c #998636",
"b. c #AA8D38",
"n. c #CF890E",
"m. c #CE9329",
"M. c #D5A936",
"N. c #958656",
"B. c #B18F4D",
"V. c #AB9847",
"C. c #A6895A",
"Z. c #B9835A",
"A. c #A9955A",
"S. c #BCA955",
"D. c #978668",
"F. c #8E8874",
"G. c #978878",
"H. c #A98768",
"J. c #BA8865",
"K. c #B3956F",
"L. c #A58C76",
"P. c #A89978",
"I. c #B7A670",
"U. c #C7804E",
"Y. c #CE814E",
"T. c #D0834F",
"R. c #CD8352",
"E. c #C88658",
"W. c #D18553",
"Q. c #D68759",
"!. c #D58A5A",
"~. c #CF945F",
"^. c #E4885D",
"/. c #D2B154",
"(. c #C88B64",
"). c #D78E61",
"_. c #CB946B",
"`. c #DA9263",
"'. c #D99669",
"]. c #CD9372",
"[. c #E49769",
"{. c #E69971",
"}. c #CBAD73",
"|. c #E8A479",
" X c #F5A77C",
".X c #DCCB6B",
"XX c #005788",
"oX c #096799",
"OX c #33668E",
"+X c #0472AA",
"@X c #455782",
"#X c #496C8A",
"$X c #50728F",
"%X c #557997",
"&X c #647A88",
"*X c #6C7990",
"=X c #507BA4",
"-X c #8E758C",
";X c #0984BB",
":X c #798688",
">X c #69859B",
",X c #5884A9",
"<X c #5D8BB2",
"1X c #668AA8",
"2X c #6595A9",
"3X c #7696A8",
"4X c #638DB3",
"5X c #668DB5",
"6X c #6B94B9",
"7X c #7499BA",
"8X c #038CC8",
"9X c #0495D5",
"0X c #009AE0",
"qX c #01A6EB",
"wX c #6A99C4",
"eX c #739EC7",
"rX c #6EA1CF",
"tX c #78A2CA",
"yX c #79A6D4",
"uX c #6AC4DB",
"iX c #888986",
"pX c #939190",
"aX c #A7988A",
"sX c #B5998C",
"dX c #A89B98",
"fX c #B1A88A",
"gX c #A9A695",
"hX c #AAA694",
"jX c #B6A797",
"kX c #B7B397",
"lX c #8899AD",
"zX c #979BA5",
"xX c #AB9DA1",
"cX c #98AEB3",
"vX c #ACA5A7",
"bX c #B7AAA5",
"nX c #B7B4A8",
"mX c #BAB9B8",
"MX c #C9AA83",
"NX c #CCB38C",
"BX c #D4B288",
"VX c #EFB089",
"CX c #C4B9A7",
"ZX c #D5BEAC",
"AX c #C5BAB5",
"SX c #C8C4B9",
"DX c #DCC8B2",
"FX c #83ACD9",
"GX c #83B2DF",
"HX c #B7BBC1",
"JX c #86B2E1",
"KX c #CAC8C7",
"LX c #D3C3CD",
"PX c #EADBD2",
/* pixels */
"Q.Q.Q.Q.Q.Q.Q.Q.Q.Q.Q.!.W.R.R.W.R.R.R.R.W.T.R.R.Y.Y.Y.Y.Y.Y.l.l.l.k.k.2.&.t.2.t.t.h.j.j.k.!.`.`.`.`.`.`.`.!.!.!.!.!.!.!.'.BX}.BX",
"Q.Q.Q.Q.Q.Q.Q.Q.Q.Q.u.<.<.8.r.r.u.U.U.U.R.R.Y.Y.Y.Y.Y.Y.Y.Y.l.l.l.l.l.j.2.t.t.t.t.h.h.j.k.Q.`.`.`.`.`.`.`.).).!.!.!.!.!.'.BX}.BX",
"Q.Q.Q.Q.Q.Q.Q.Q.Q.y.a a A K K A A ,.r.u.u.R.R.W.R.R.Y.Y.Y.Y.l.l.l.l.l.l.j.j.2.t.t.t.j.j.k.Q.`.`.`.`.`.`.`.).).).!.!.!.!.'.BXMXBX",
"Q.Q.Q.Q.Q.Q.Q.Q.E.S a N a N l , y i A F *.w.w.u.R.Y.Y.Y.Y.Y.l.l.l.l.l.l.l.j.t.t.t.h.j.j.k.Q.'.).Z.s.r.Z.).`.`.`.`.`.`.).'.BXMXBX",
"Q.Q.Q.Q.Q.Q.Q.Q.r.a N i N i * 1 i , , > i K K %.y.W.T.Y.Y.Y.l.l.l.l.l.l.l.j.t.t.t.t.j.j.U.E.*.N Z G l p A *.8.a.E.`.`.`.'.BXMXBX",
"Q.Q.Q.Q.Q.Q.!.E.S i N p l p l l p y , % % i l t #.R.W.Y.Y.Y.l.l.l.l.l.l.l.k.h.t.t.j.j.k.w.l * 1 k B k i y i p y A Z.`.`.'.BXMXBX",
"Q.Q.Q.Q.Q.Q.Q.r.t y i p y l i p p i , % % , N i u y.W.T.Y.Y.Y.l.l.l.l.l.l.l.h.h.t.h.k.w.p k B B B k i k y p i * * J Z.).'.BXMXNX",
"!.!.Q.Q.Q.Q.!.A , * * , > , i N N p y % > , N N r 1.W.T.Y.Y.Y.l.l.l.l.l.l.l.h.h.h.h.y.l > 1 k B B k k k i y 1 * % % H ).'.BXBXMX",
"!.!.Q.Q.Q.!.E.u * % % % % & 1 i N N N 1 , , p N u w.R.Y.Y.Y.Y.Y.l.l.l.l.Y.l.h.h.h.u.%.2 1 B B Z B k B C B k 1 1 1 > 1 a.|.BXBXMX",
"!.!.Q.Q.Q.Q.E.a % # # # # % * y p p N N l y i l u y.W.T.Y.Y.Y.Y.Y.Y.Y.Y.Y.l.h.h.j.<.i 1 1 k V B k B k B B C k k B k 1 K }.BXBXMX",
"!.!.Q.Q.Q.Q.!.#.% # . # # # % , , > i p N y y y u y.R.W.W.Y.Y.Y.Y.Y.Y.Y.Y.l.h.h.y.l 1 1 7 7 V k 7 k C B k C 7 k C B k p H.BXBXMX",
"!.!.!.!.Q.Q.!.$.$ % # # # $ * % % * r t d e * * r y.W.R.W.Y.Y.Y.Y.Y.Y.Y.T.l.h.h.<.p 1 7 V k V B 1 B k B B k k k > > > > 5.NXBXMX",
"!.!.!.!.!.!.Q.e.q 9 $ u S d a e * 9 S S #.d * % c R.W.W.W.T.Y.Y.Y.Y.Y.Y.Y.l.h.t.S k 1 2 7 k 2 Z C k 7 k k k C 2 % # X X ( NXBX}.",
"Q.!.!.!.!.!.Q.z.o.s d u.R.=.=.w.d u #.%.*.p % * w.Q.W.W.W.T.T.Y.Y.Y.Y.Y.W.l.h.1.c i y k 1 1 i ) G 2 k 2 2 1 k k % # . X J NXBX}.",
"!.!.!.!.Q.Q.!.).Q.1.<.U.Q.w.S H d #.=.d u e $ v R.W.W.W.W.T.T.T.T.Y.Y.R.W.l.h.1.A a A a e a A A i , 1 1 1 % % y e H c : k fXBXI.",
"!.!.!.!.Q.!.(.*.s.<.<.y.!.!.&.s &.).s.r c d c U.!.W.W.W.W.T.T.T.T.Y.T.Y.W.l.h.2.#.d d c v *.*.A 9 y * 1 % % % i <.Q.h.u ; :XCXI.",
"!.!.Q.Q.Q._.( 1 S S ,.w.R.[.[.Q.[. X'.s e S z.Q.Q.Q.W.W.W.T.Y.T.T.Y.T.Y.T.l.h.h.e.%.d d #.y.=.=.#.d * * % % , *.2.e.x.| % ^ cXP.",
").!.Q.!.].pXx G %.%.,.w.u.).).Q.{. X{.1.#.y.!.Q.Q.Q.W.W.T.T.T.T.T.T.T.Y.T.l.h.h.j.1.S #.1.y.<.1.E.y.u * * * l y.:.;.x.#.% Q 3X/ ",
"zXsXjXvXcX3X9.,.<.*.*.,.6.=.%.w.z.|.{.j.1.R.Q.!.Q.Q.W.W.W.T.T.T.T.T.T.Y.T.l.h.j.j.t.&.&.&.s d S r.E.=.#.d e A !.z.Q.^.v 7 2X7X( ",
"5X4XFXtXFX3Xq.6.6.K H K K d A K d $.w.#.w.!.Q.Q.Q.Q.Q.Q.W.W.T.T.T.T.T.T.T.k.h.j.j.k.y.#.$.#.s #.&.=.w.u.1.d *.(.Q.[.!.*.{ uX2X( ",
"JXwXwXeXFX7X0.6.*.H N H K s.z.4.c r r l 0.(.Q.Q.Q.Q.Q.Q.W.W.T.T.T.T.T.T.W.k.j.j.k.k.k.=.&.;.S $.#.%.y.!.R.w.a.(.z.t.z.a.cX7X[ I ",
"GXeX6XtXFXeX` ,.K A l G 5.a.Z.a.*.c l V [ } J.!.Q.Q.Q.Q.W.W.T.T.T.T.T.T.W.l.j.k.k.l.R.k.l.z.1.v #.y.`.`.E.r.a.Z.s.y.y.J.sX-X@X;X",
"yXeXwXyXFXtX} *.H c p l K 6.r.6.H l x Q ' &X:XsX(.Q.Q.Q.W.W.W.T.T.T.T.W.W.l.j.k.k.U.R.R.Q.Q.h.1.1.U.E.y.r.8.q.q.Z.E.w.a.-X*X+X0X",
"yXyXeXyXFXyX} H A a u y p G 5.5.G C / Q ] &X*X3XzX_.Q.Q.Q.W.W.W.T.T.T.W.W.l.j.k.k.U.U.U.^.^.l.1.1.1.=.*.5.5.5.5.8.r.e.e.-X=X9XqX",
"yXyXeXGXFXFX&Xl a u u y e , y y k / ] Q ] &X>X1X7XzX_.Q.Q.Q.W.W.Q.[.[.[.Q.l.j.k.l.R.U.k.Q.^.Q.1.&.&.%.H K 5.K H K =.:.:.&X;X0XqX",
"yXGXyXGXJX5X{ ) S u r 9 9 * # o @ ] ' ] ] >X1X1X7X7XpX(.Q.Q.W.W.W.z.Q.[.`.R.j.k.U.U.E.U.u.&.9 a A S H H H K H a H :.-.-.] 9XqXqX",
"yXJXyXyX$XI [ H.6.S d u r e ; ; @ 8 { ] ] >X1X5X7X7X3XsXQ.Q.W.W.Y.j.h.y.t.!.!.U.U.E._.E.R.E.c y $ 9 a A A A a L A.C.r.c oX8X0XqX",
"yXGXwX%XQ ~ } H.Z.6.H S d k 8 8 8 8 { { ' >X1X6X6X7X7XzX(.Q.W.W.Q.Q.`.E.1.u.~.E.U.(.}.E.R.'.'.s.u d c u a y D I.}.C.#.I ;X;X0XqX",
"wXeX=X6X4X%X] g.J.6.*.S C I I Q ] ] ' #X{ 1X1X7X7X7XtXlXsXE.Q.Q.R.'.'.w.#.%.r.E.E.E.].E.E.'.[.J.C p a u , J I.}.y.-.w ~ 8X8X9XqX",
"wX<X,X6X7XcXzXd.a.5.K G / Q / ] { { #X$X#X1X1X7X6X7XeXtXzX(.Q.Q.R.|.{.H ) 9.MXVX_.=.y.E.E.'.[.a.x : 9 : x _ K ;.X.| 3 oX8X8X9X9X",
"wX<X=X4X3XbXAX0.7.5.K [ $X{ ' { #X#X$X%X$X5X1X7X6XeX7X6XzX(.Q.Q.E.|.BXZXPXPXPXZXVXs.$.E.E.'.'.9.f $ = I Q P k | | q I +X+X8X8X+X",
"<X,X=X4X] 9.ZX_ K K ) >X1X%X%X%X$X$X$X%X%X1X1X6X6XeX5X,XlX(.Q.R.u.).'.MXDXDXDXBX[.w.q 4.(.'.'.4.: ; I Q P P / s q f ~ ;X+X;X+XXX",
"=X4X5X<XQ 9.PX9.p p ( pXpXiX1X>X$X$X%X%X%X4X4X5X5X1X,X1XlX(.W.R.y.1.'.MXDXPXDXsX#.w 0 g 4.'.[.6.1 8 8 5 5 P ^ u u g ~ 8X+X+X+XoX",
"4XwXwX,XQ f.PX9.i A 8.(.{.VXdX*X#XzXKXzX*X5X4X4X,X$X%X4XzX(.W.R.R.t.E.K.ZXDXZX9.0 0 f f b i.{.4.z q * ; 6 Q ^ V c j ~ 8X+XoXoX+X",
"tXrXrX,X/ f.LX9.S _.~.2.t.W.).L.( } nXdX8 / 5X4X#X$X%X6XiX(.Q.Q.Q.R.R.s.H.P.L.l 0 f f f j 4.].b z q : 1 k n Q Z z T ' ;XoXXXXX! ",
"tXrXrX,X*XxXLXg.'.VX|.|.{.`.z.s.K 2 k g.` / 1X%X^ ,X,X6X-X(.Q.Q.R.R.R.E.4.) l - 0 f f j U ) ) j : . % 7 2 p : : g T ' ;XoXXX! 5 ",
"wXrXwX$XiXzXsXJ. XVX'.`.!.[. X(.6.C C L.SXzX1X#X%X=X4X1X:XK.Q.Q.W.R.R.E.v 0 - - 0 f f U j - f g - X X 6 < p $ = j T ' ;X+XXXP @ ",
"wXwXwX&XiXKXAXH.{.|.'.'.{.{.).!.a.Z ( aXjX3X1X@X%X,X6X1X1XzX(.W.W.R.R.z.b g 0 - 0 g j g - f j j f =   @ 4 p * - j T Y +X+X! 5 o ",
"wXrX7XiXpXKXAXL.J.|.!.y.e.E.[.R.r.g.iXgX:X1X%X^ =X4X6X7X7XlXK.W.W.R.W.z.v g f 0 g j g f g j R W j 3 X O 4 1 : 3 j T Y +X+XP O X ",
"wXrX3XF.pXvXjXL.H.|.|.'.E.w.q.s.J.H.:XiX&X,X#X#X<X4X#X$X%X1XaXQ.W.W.W.Q.=.q g g j g f j T R W W R g =   < @ : 3 j j Y oXoX4 X o ",
"5XeX3XF.iXaXL.D.g.r.&.$.=.r.9.f.s.G.zXiX*X&X~ =X4X#X@X$X%XeXaXW.R.W.W.W.R.v 0 g j j T W W W 4.W E U - X # % : : h j Y OX! O X + ",
"4X5X:XiXf.D.q.0.` S r l ' } ) g.G.vXHXlX:X} ] ,X#X=X6XwXwX7XL.W.R.R.W.Q.Q.=.0 0 j R W W W W W W W E 3 = . $ * : h f U ~ 5 X ; 6 ",
"{ } ` g.9.C.q.` ` d C { &X:XpXgXfXI.}.fXF.G.L.iX>XeXrXrX1X' s.R.R.R.R.R.R.y.w 0 f j T T R R E W W W j 3 . # * : 3 f z 5 O < 6 6 ",
"7.q.K A l ) 9.} ( l { $X} N.P.jX}.b./..XI.q._.'.].dXtXyX5X*XL.E.R.U.R.R.k.k.v 0 0 g j T T R R E W E U h = X = ; : f h 6 4 <   o ",
"5.5.K N ( d.( { } ] #X#XF.D.D.D.b.+.v./.BX8.Z.(.(.].G.{ $X%X*Xg.U.k.U.U.k.t.w.q 0 0 f j T T R R R E T j h = + ; ; - - 6 @     X ",
"H G l % i d.iXiXc.$XOX} c.F.iXgXA.v.B.A..XB.s.J.J._.J.) / ~ I 8 a.k.k.k.u.y.u.$.0 - 0 f j T T R T T U j j 3   o + = - ; O     o ",
"a u i * l d.aXkX} 5X%Xc.} :XzXPXSXB.B.C.}.B.a.s.J.s.J.6./ >X' 8 a.u.s.s.y.y.y.u.v 0 - - f j U T R T U j j 3 X   o = = = + @ 6 8 ",
"e * c A c 0.aXjX( iXiXF.c.c.pXbXkXA.V.B.N.C.F 6.s.s.J.S k { / ( K.L.P.P.q.<.=.=.=.u - - - f h U T T U h 3 3 X     ; X = = 6 8 8 ",
"# # *.<.N g.fXgXK 2.r.D.D.P.fXkXCXP.>.>.D.N.r c H i.c * x / G L.kXgXgXgXhX5.d d d d y - - - - f j U j h - 3 X     @ o     + 6 ; ",
". & 5.8.N 0.5.q.K 2.2.A.A.I.MXNXCXkXP.7.P.` . # # * # : x / 0.jXkXgXgXgXgXg.d d d d c u - $ $ - - f h f 3 = X   @ o   @ + + ; @ ",
"* u H J Z 7.F F <.2.2.A.A.A.S.MXkXkXkXI.P.` # % * e * , x C aXgXgXgXgXgXgX0.a d d d d c c y $ # # # # # : = X @ @   6 6 + + ; 6 ",
"* r N Z Z 7.F F <.2.2.C.A.N.V.}.I.I.I.V.N.` , y a G a i l ( jXgXgXgXgXgXgXK u d d S m d c l : . . . . # K 6.l ; @ 6 8 6 o + @ ; ",
"* $ k ( J _ S F >.<.>.>.A.V.S.S.b.b.V.b.>.K p A G A A l l K gXgXaXgXgXgXG.d ,.A./.}./.B.B.%.e # . . . . * c : < 6 8 8 < o o + + ",
"e * y y y l A A %.,.>.>.b.b.V.V.b.V.V.v.>.D A A G G A N N A D.aXaXaXaXL.G a F <.>.S..X/.M.M.m.+.9 # # # # . X < < 6 7 < o o + @ ",
"y i Z Z Z J k N N a m >.>.>.v.V.V.>.F L M A l A G _ 5.q.H.H.q._ 0.D.0.A a a a r t 8.}.m.m./..XM.@.s $ # # # . + + @ < + o + @ ; ",
"k G ( _ _ ` Z J k ; N L D m >.>.>.M m L D A A G G J J K ,.L L L L K a u u a u e e S +.n.M..X.X/.M.m.q $ $ # # X X   X X o @ ; ; ",
"/ B N J J ` G.gXnXnXnXnXkXaXN.D M M M L m N C x k y A ,.K 8.8.5.D a u u u u a a t m @.n.n.M./.M.m.3.v 9 * $ # .           + @ + ",
"/ / ( J _ jXCXKXKXKXKXKXKXKXKXgXN.>.m m >.l x x 2 y %.2.o.>.>.M m m t u u a A A D %.@.3.3.n.n.n.3.O.v $ $ $ $ # .           X X ",
"aXkXkXfXjXbXnXAXAXSXAXAXAXCXbXaXD.7.0.D.P._ C B 1 * u &.,.A.H.L.G.F.} ` ) A y e y e s O.O.O.O.@.O.#.G C l u p r w q $ .         ",
"CXCXCXCXCXbXbXbXbXnXbXbXjXjXdXD._ D.G.gXjXjXC.C.J , , %.I.SXCXSXKXSXSXSXnXbXd.e 9 * * d 6.C.P.jXjXbXnXsXe.-.;. .....-. .4.( / n ",
"aXaXbXmXnXbXbXbXAXnXbXbXdXdXaXG.( g.D.g.g.P.Z.~.fXN.%.@.Z.bXAXKXKXKXKXKXAXbXG.e 9 * C gXmXnXAXbXjXAXjX;...-... . .......-.p.jXnX",
"F.F.gXHXmXnXbXbXbXsXjXvXvXdXiXF.( L.H.H.C.a.2.2.K.K.b.@.o.y l ) f.f.f.` ( z * * * 9 G.CXjXjXnXnXjXkXL.;.-.-.-.:.:.-.-.-.X...:.jX",
"dXvXmXmXmXmXmXmXmXbXvXvXvXdXaXpX` G.g.q.6.&.o.O.O.O.@.@.o.s A H c : ; ; < 2 k k C Z d.G.L.aXgXmXnXnXP.=.-.-.-.:.p.p.e.:.-.....sX",
"vXmXmXmXmXmXmXmXmXmXmXmXmXmXvXdXd.G.G.g.8.1.@.@.@.@.;.;.&.r.K.K.P.G.d.4.$.$.$.v l N u G q.G.F.kXnXjX0.*.;.-.-.:.:.:.-.-.-...;.sX"
};
