/* XPM */
static char *f81fbf8ec98542c8d98e7186532673678ysMIuVWtbGU3N6U[] = {
/* columns rows colors chars-per-pixel */
"64 64 256 2 ",
"   c #090319",
".  c #19071B",
"X  c #120308",
"o  c #23091D",
"O  c #2A161F",
"+  c #020124",
"@  c #08042A",
"#  c #160A29",
"$  c #1A142A",
"%  c #050B34",
"&  c #050C3B",
"*  c #080937",
"=  c #130D33",
"-  c #170C34",
";  c #0C123D",
":  c #0E1236",
">  c #181639",
",  c #280C25",
"<  c #2A1528",
"1  c #34182C",
"2  c #261736",
"3  c #361A34",
"4  c #2D0C2C",
"5  c #3A2638",
"6  c #302633",
"7  c #1E2039",
"8  c #442539",
"9  c #52293A",
"0  c #592033",
"q  c #050E43",
"w  c #070C46",
"e  c #061146",
"r  c #0B1343",
"t  c #0B144B",
"y  c #0C194D",
"u  c #06124B",
"i  c #161747",
"p  c #0D1652",
"a  c #0E1A52",
"s  c #061557",
"d  c #121B53",
"f  c #141654",
"g  c #010C52",
"h  c #261C46",
"j  c #331D42",
"k  c #162159",
"l  c #19204E",
"z  c #29264A",
"x  c #342748",
"c  c #373647",
"v  c #2A2856",
"b  c #372B54",
"n  c #383559",
"m  c #2D3251",
"M  c #071864",
"N  c #111765",
"B  c #102774",
"V  c #3A3564",
"C  c #2E3273",
"Z  c #462A44",
"A  c #493447",
"S  c #543649",
"D  c #473759",
"F  c #583B57",
"G  c #522A48",
"H  c #693950",
"J  c #473A67",
"K  c #513E69",
"L  c #3C446C",
"P  c #3F4052",
"I  c #4C4559",
"U  c #594659",
"Y  c #554B55",
"T  c #644858",
"R  c #6E4C59",
"E  c #574869",
"W  c #5B5469",
"Q  c #494675",
"!  c #594774",
"~  c #585978",
"^  c #4A4A69",
"/  c #674B66",
"(  c #754B65",
")  c #665668",
"_  c #755669",
"`  c #644A76",
"'  c #654C7A",
"]  c #6A4E7B",
"[  c #644775",
"{  c #685777",
"}  c #765977",
"|  c #704E7B",
" . c #796969",
".. c #6D637B",
"X. c #6A6376",
"o. c #776878",
"O. c #70646D",
"+. c #7D695E",
"@. c #875A77",
"#. c #88556B",
"$. c #84696A",
"%. c #87746B",
"&. c #886878",
"*. c #95667B",
"=. c #897878",
"-. c #947C79",
";. c #957B6D",
":. c #A2697C",
">. c #C27D78",
",. c #9B8378",
"<. c #A2877A",
"1. c #283B88",
"2. c #384FA5",
"3. c #384E9C",
"4. c #51538F",
"5. c #6B5281",
"6. c #665988",
"7. c #755784",
"8. c #6C6386",
"9. c #776987",
"0. c #7A7488",
"q. c #766994",
"w. c #7C7693",
"e. c #6B6893",
"r. c #4858AB",
"t. c #4F67BA",
"y. c #7674A8",
"u. c #866B86",
"i. c #877788",
"p. c #977987",
"a. c #826D96",
"s. c #867997",
"d. c #947A94",
"f. c #976C82",
"g. c #A7768A",
"h. c #A87D96",
"j. c #AD748A",
"k. c #887AA6",
"l. c #947EA8",
"z. c #8C5F80",
"x. c #7C84A3",
"c. c #7A809A",
"v. c #998687",
"b. c #9D918B",
"n. c #8C859C",
"m. c #8A8699",
"M. c #978599",
"N. c #989199",
"B. c #A48987",
"V. c #A6928A",
"C. c #A48897",
"Z. c #B4879A",
"A. c #A89797",
"S. c #B5959A",
"D. c #B39789",
"F. c #8C88A6",
"G. c #928CA4",
"H. c #9888A8",
"J. c #9995A8",
"K. c #9D88B3",
"L. c #9E96B7",
"P. c #8C8BB2",
"I. c #A78AA6",
"U. c #A898A7",
"Y. c #B896A7",
"T. c #A799B7",
"R. c #B999B5",
"E. c #AB8CAD",
"W. c #B7A6A8",
"Q. c #ABA7B7",
"!. c #B7A8BB",
"~. c #BAB3B7",
"^. c #B5ACAA",
"/. c #A8A1AC",
"(. c #CE9297",
"). c #E2A19F",
"_. c #C799AC",
"`. c #C59CB4",
"'. c #CB96AB",
"]. c #C5A6AA",
"[. c #C9A6B7",
"{. c #D6A9B9",
"}. c #C5B8B9",
"|. c #D8B5B8",
" X c #E5B9BD",
".X c #E7ABAF",
"XX c #E29E9B",
"oX c #9697C2",
"OX c #A69BC3",
"+X c #B19BC8",
"@X c #A9A6C5",
"#X c #B7A8C7",
"$X c #BBB9C8",
"%X c #B8A7D3",
"&X c #B6AFD5",
"*X c #C8A9C5",
"=X c #D7ADC4",
"-X c #C7BAC7",
";X c #D9B6C7",
":X c #C4ACD5",
">X c #D8B9D4",
",X c #C9BAD8",
"<X c #E6B9C8",
"1X c #E6BBD5",
"2X c #F1BAD1",
"3X c #C8BAE4",
"4X c #D3BBE6",
"5X c #BFC3E2",
"6X c #CAC5C9",
"7X c #D4C3CB",
"8X c #D5C6C7",
"9X c #CAC9D6",
"0X c #D3CCDB",
"qX c #D8CBD5",
"wX c #CCD4D8",
"eX c #D4D4DC",
"rX c #DBD5DC",
"tX c #DBD9DE",
"yX c #D5D4D8",
"uX c #E7C5D8",
"iX c #F5C7D6",
"pX c #E3D6DB",
"aX c #F0C7CC",
"sX c #D5D4E2",
"dX c #D5DBE3",
"fX c #DCDBE3",
"gX c #DCDDEA",
"hX c #D9D5E5",
"jX c #D4D0E9",
"kX c #F9CCE5",
"lX c #E3DCE4",
"zX c #EBDDE4",
"xX c #E3DDEA",
"cX c #E8DAE7",
"vX c #FDD6E8",
"bX c #E9DBF2",
"nX c #FAD6F3",
"mX c #E9CBE6",
"MX c #DCE3EB",
"NX c #DDE5E9",
"BX c #DBE7F3",
"VX c #D0E9EF",
"CX c #E4E1E6",
"ZX c #E4E3EB",
"AX c #EAE4EC",
"SX c #EBE9EE",
"DX c #E6E7EB",
"FX c #F3E6EC",
"GX c #EBE4F1",
"HX c #ECEBF2",
"JX c #E5E8F5",
"KX c #F2ECF3",
"LX c #F5EBF8",
"PX c #E9F4F9",
"IX c #F8F5FD",
"UX c #CBC0BE",
/* pixels */
"eXNXdXMXfXdXHX0XfXLXLX0X0XU.d.o.i.[.cXcXpXcXbXlXhXlXlXfXfXfXfXtXfXtXtXtXrXrXrXqXqXrXqXqXyXqX9XyX6X6X6X6X-X-X}.~.}.}.}.~.}.W.}.^.",
"PXeXNXMXdXJXsXJXeX-X$XU.U.d.0./ ) M.*X-XmXbXbXqXcXxXAXZXxXxXfXfXZXCXlXfXtXrXrXrXqXpXpXpXrXqX6X6XyX9X0XrXqX8XqXqX}.}.}.}.}.~.}.^.",
"ZXeXZXJX9XwX~.6X/.0.m.0.o.0...U } o.M.I.qXbXIXGXGXGXGXGXZXZXZXSXSXSXZXlXlXtXtXtXrXrXpXpXpXtXrXrXyXtXrX7X7XqX8X}.}.8X8X}.}.}.}.~.",
"MXIXgXJX$X~.!.J.i.) i.o...i.....{ ) { o.U.-XbXGXGXAXAXGXGXSXHXHXSXSXDXCXxXxXlXlXKXzXpXrXrXrXrXqXlXqX7XpXzXqX7XpX8X8X8X}.8X8X6XUX",
"IXJX~.$XJ.N.J.s.X.W ) U W ..D W E U ) { s.M.#X9XxXZXAXGXHXHXKXKXSXAXDXCXxXxXxXzXrXqXzXAXlXlXxXtX-XAXAX7X7XqXuXpX8X}.qX^.8X}.}.UX",
"LXJ.m.m.s...I W ........s.n.E W W E W ......m.!.0XxXLXHXHXLXLXHXSXSXAXxXlXlXlXlXAXzXFXqXN.O.W I A i.C.o.o.C.[.7XpXqXpX-XpX8X^.UX",
"sXs.n.n.G.W I { { { W 9.w.s.{ W { E I 8.~ { { m.Q.hXIXLXHXLXLXSXSXAXZXlXlXlXcXzXFXrX-XU.) A 5 , 5 5 5 Y S o < _ [.[.-XuXpXpXA.8X",
"Q.n.n.n.G.I w.n.8.~ ^ { I ~ 8...8.{ W H.s.9.E X.n.9XIXIXSXKXLXHXDXCXxXlXlXcXzXzX7XM.) A < 1 5 < . < < 3 S A 1 8 S T _ W.W.|.=.}.",
"s.T.W E W W 8.s.s.9.E { { { E { { w.W s.D x W X.X.U.IXLXGXGXHXZXfXAXCXrXSXrXIXW.A U S 6 , . o < o 9 5 o S } F < S Y.T T pXR . ^.",
"n.G...E ..n.9.0.H.H.9.9.F.D x { 9.0.` D D 9.I ) { U.LXGXHXHXSXZXSXtXFXAXpXLX-X5 U S 3 o o . . , 1 5 o < Z F 8 3 , T _ ) zXA.v.}.",
"m.m.G...w.Q.w.G.s.0.w.w.K.x D ` { F H.9.U d.0.W o.!.IXGXKXHXCXCXKXrXAXAXpXIXv.< ) S 3 < , . o 1 T S , o 1 T G 4 1 . S _ uXW.A.W.",
"w.w.Q.s.8.0.{ G.0.D 0.9.9.D 9.9.9.{ / U / E } W ) -XIXGXHXLXDXZXDXDXtXlXFX7XU S U U S 5 1 o o 3 / T 5 1 , F S 3 4 5 1 <  .U. .Y ",
"w.9.G.G.0.{ ..J.s.I a.W D ` 9.} / / / / _ 5 ) U I -XIXZXZXLXHXSXfXKXlXCXFXo.< 8 5 S A 1 , o o , 8 1 < 1 o 4 3 G . 5 . o ) FX8X^.",
"Q.0.9.G.J.w.G.L.s.n.T.a.9.a.` } / &.*X*Xd.U U 5 o.0XLXHXfXHXHXDXDXAXCXAXrXY Z < , 1 < . o , , , o o o o 4 4 3 3 Z 4 1 5 Y }.AX}.",
"BXm.0.n.G.w.n.s.0.F.F.s.9.` } d.*XuX1XR.;XC.5 3 -XKXHXIXxXJXHXfXSXAXlXlXpXY Y 1 o , , < 8 G G G 3 S T 3 S Z x , Z 5 U 5 5 A.IX~.",
"JXm.n.G.J.G.T.L.#XT.n.K.9.F *XnXiXiX;X;X>XR.u._ IXIXlXIXZXDXJXMXCXKXtXlXKXY < < < 1 8 H _ } } f.R p.Y.&.} 1 1 Z 5 1 A S 5 ) yX8X",
"hXF.G.G.F.G.&XOX&X@XH.H.E.E.*XmXiX{.Z.&.8 _ ) v.LXSXZXZXJXJXNXNXDXdXDXHXtXm.5 < Z _ G '.*.H #.h.@.H [.[.Z , 3 3 3 D 5 A 1 5 /.-X",
"IX0.J.G.6.0.#XL.@X#XT.0.{ u.[.nX{._.C.S S C.1 i.LXKXSXDXJXPXJXNXPXMXeXDXQ.0.c Z / S @.<X(.G H H #.0 '.<X_ G 8 A < 3 x Z < 6 U O.",
"IX$XW ) { #X{ a.s.M.u.} d.*XuXiX;X@.9 1 B.FXT Y.FXKXSXHXKXHXSXDXDXMXNXJXQ.Y 1 1 Z 4 Z.{.g.g.=Xh.G 0 Z.<XZ.&.8 , < # 5 6 . , . 6 ",
"IX9X{ 9.Z >XE.} } d.I.I.=XvXnXkX;X_.f.R S.IX;XW.pXzXFXKXKXHXSXDXCXNXPXDXsXA . . 1 ( *.*.'.kXj.#.j.:.Z._._.Y._ . 3 2 5 5 < < < 5 ",
"IX9XQ.G.5 _ uXY.`.;X1X;X1XiXvXvXkXiX<X{.1X<XvXuX}.qXzXFXFXFXFXSXSXHXDXdXPXW . 3 _ S H h.'.2X( R :.j.j.Z._.[.h.1 . 1 . 2     $ 5 ",
"BXIXG.i./ 3 *._.iX2X{.{.aXkXiXiXiXkX1Xg.;XvXvXuXY.}.qXpXzXFXFXFXAXLXtXNXHXN.  < / I.h.( g.2Xh.*.R :.j.'.=X{._.( S ) o 6 . . I W ",
"BXPXc.O.8 9 *.*.Z.[.{.{.|.<X<XaXuX;XS.p.].].B.8XC.Y.].-XpXFXFXCXlXZXNXNXNX$X7   F F ( h.;XkXkX<X<X<X2X2X<X;X=XR.=.i.. $   7 ^ ^ ",
"VXPX$XA X H 2X(.:.'.<X|.|.|.{.].[.[.*.C.C.B._ -.v.V.A.W.8XCXFXpXCXyXKX9XdXdXW . A h.h.=XkXkXuXiXvX2XvX2X{.<X[.[.M.v.. $ $ P I c ",
"PXVXPXc X $.<XaXiXaX X|.|.|.].Y.;Xp.A.$. .W.v.A.A.A.b.A.^.}.8XpXrXCXdXeXwXJXW   3 qXmX;XmXnX1XkX[.kXkX<X<X<X{.[.p.U . . $ c m ^ ",
"VXVXIXW O S.|.aXaX X|.|.].].W.].W.1 p.o.5 %.,.A.V.A.b.b.A.W.}.qXpXlXtXdX9XdXX.c   I.1X>XnXnX1Xh.<X{.'.'.=X;X{.[.p.o.U 2 $ 7 n ~ ",
"VXVXIXW _ [.aXaXiX X|.|.|.W.].;XA.&.6 X T W.V.b.b.V.b.b.b.b.W.6XpXtXtXNXeXNXJ.G.i.u.d.f.R.I.@.;XkXiX1X=X{.=X{.Y.C.i.o.2 $ > n L ",
"PXPXBXY U.].<XaXaX X|.|.|.].].|.A.U.Y T A.A.A.v.v.V.b.b.b.b.W.6XpXtXfXNXdXJX9XsXbX,Xu.d./ _ *XmXnX1X=X=X{.=X`.h.h.p.i.x # > z m ",
"@XL.X.Y !.|.|.aX X|.].].[.{.].Y.R.W.U.C.v.v.V.V.b.V.b.V.A.V.A.}.lXAXCXdXdXBXsXgXhXjXR.I.E.R.E.*X`.( H C.=X[.Z.f.p.M.E.{ # > ; v ",
"n x 2 A >X;X<XaX|.|.].S.].[._.Z.Y.uX_ S V.S.B.B.V.B.b.V.V.V.A.}.zXKXDXdXdXMXhXsXLX0X*X*Xu.3 M.R./ F ( Y.=X_.Z.h.C.E.#X9.- i % i ",
"n h D Z =XuX<XaX X|.].Z.B.B.Z.Z.Z.`.S $.].-.B.,.B.B.,.B.V.V.W.UXpXSXDXNXMXMXBXgXbXjX0X!.I.E.F F | h.*X=X=X[._.Y.Y.R.>X8.- z r q ",
"V x D j u.kX|.iX<X{.S.-.#.( @.g.Y.[.*.$.S.B.,.D.B.B.v.B.V.A.W.qXlXSXDXMXJXdXhXgX0XbX9XT.F :Xd.E.*X*XR.`.<X<X`.Y.Z.[.bX{ @ r d d ",
"i Q V h Z >XuXuX;X|._.Z.g.&.R S U / T B.D.<.B.<.<.B.v.v.A.W.8XpXxXlXfXZXDXZXhXeXeX0X-Xd.A M.C.I.=X2Xh._.=X`.[.&.Y.[.>Xx > i y p ",
"C v V h h { nX1XuX[._._._.Y.g.( u.=.$.V.V.B.,.<.<.B.B.v.A.}.qXAXZXxXlXZXZXgXfXtXeXxXU.u./ } u.@.#.#.@.`.uX[.f.R U.7XI.2 > i a s ",
"C i i i j - E.mXuX[.[.=X[.Y.*.S C.C.b.B.<.D.;.<.,.B.B.v.A.-XpXFXZXxXxXZXZXfXfXfXeX0X!.o.o.{ / I.@.z.E.>X>Xd.} d.U.7X) # i t d s ",
"V v v b b - 4 R.uX=X[.R.Y.u.G o o.C.b.,.;.D.<.<.,.B.v.v.U.8XzXCXSXZXZXZXNXfXfXfXfX9X-X0.{ D # { :XmX:X:Xa.j ' K.#XT.x = i p d p ",
"Q V v v - D 2 4 !.*XR.C.C._ 4 . A v.,.,.;.<.<.<.<.B.v.v.Y.qXCXlXSXSXZXZXZXfXfXgXgXsXT.F.~ 2 + @ j K b b h i e.oX+X6.- i r f a a ",
"V Q h b n - D H.F d.R.I.u.Z . , < v.v.v.,.,.<.,.<.v.p.v.Y.8XpXCXSXZXZXZXZXfXfXgXgX9X@Xw.b h - - + @ i % w C 4.y.oXv * v w d a a ",
"~ v v h - 8.,XE # E H.l.K # @ # . =.v.,.,.,.,.,.,.,.v.v.A.~.qXCXSXZXlXZXZXZXfXgXgX9X5XV + ; * i * % f w N 1.C 4.4.p w f t d y k ",
"v v v i z b + # 2 j ! ! > = h - .  .v.-.;.V.;.,.,.v.v.p.v.U.6XCXAXlXfXlXZXZXfXdX9XBX@Xz i ; v & r w q C r.r.r.r.C N w p f y a k ",
"3X3X3X3X&XT.F.k.J z = b h @ v - . o.-.=.$.,.<.,.-.-.v.v.v.N.}.lXxXlXfXfXfXfXgXgXsXjX&Xi ; t u d e a w B 3.3.2.r.N N f f d d a y ",
"OXL.k.k.k.H.L.OX&Xk.Q h V n * h # o.=.=.%.,.;.%.,.-.-.v.M.U.~.yXlXfXfXtXfXfXfXgXsXBX@X; r t t p u s s M 2.2.r.2.M N f p a a y y ",
"! ! E E ! E J n b 6.%X6.h n i h # O.o.%.%.%.$.%.%.=.-.v.U.}.qXrXfXfXtXtXtXfXfXdXsXBXx.% i y a u s s M M 2.2.t.1.M M s p p y y y ",
"' ' ' ' ' ! ! Q b v v P.k.r i h   ) =. .%.%.+.;.%.-.b.U.-X0XlXfXhXhXtXtXtXtXfXsXwXJX~ + i t d u a s M M 2.t.r.B M s p p y y y y ",
"] ] ' [ ! ! ' ' ! ! v + e.OXv h   ) i. .%.%. .%.=.b.!.-XqXfXfXeXfXsXtXtXtXtXtXsXsXJX^ @ i e d p p p g M 3.t.3.s s s p y y y y y ",
"] 7.7.7.5.[ ! ! Q V V V @ ~ jX6.# I i. . .%. .%.$.N.-X0XlXfXhXsXsXsXsXtXtXtXtXeXZXgXm : i r y p f f g N 3.t.B g s p t y y y t u ",
"7.7.7.] ` ` 5.5.! 6.Q V > h P.jXW U o.O. . .$.%. .M.}.lXcXhXsXhXsXeXeXyXtXtXyXyXJX9X7 : i r u y f f s s r.r.s g s t t t y y e e ",
"7.| | ] [ ! ! K ' K Q V V v b &X&X9.0.O. . . . .=.N.-XlXfX0X9XeXeXeXeXyXyXyXyX0XJX@X% : r r w y p p d g r.1.g s p t t t t t e q ",
"| 7.} ] ] ] ' [ ! 5.J ! x h h q.@X@Xm.) ) =. . .i.N.9X0XsXsXfXwXwXwXwX6XfX9XwX9XJXQ % r t d f t p t d w 4.k u p t y p y t u u u ",
"] ] ] ] ` ] ` [ [ ` J J b j h J L.L.J...i.) o.O.m.Q.9XsXsX9XyX9X9XwX6X6X9X9X9XgX5Xm & u u d w f t t d w L d t p t p p p t t t t ",
"` ] ] ' ` ` [ [ ` ! ! D D b j h L.T.H.X.o.W J.Q.Q.9X9XsX0X9X0X9XwXwX9XtX9XyX$XjXP.; r u w d % f u u d w k u t d y p p y t u u u ",
"` ] ] ] ] ` [ ! [ ! ` K D b x > q.@XG.i.X.X.Q.$X-X0X9X,X6X9X6X9X9X6X$X6X-X0X0XgX^ % t y w p q p t t y u w t a p y p p y u w w u ",
"] ] 5.] ] ` [ [ [ ! K K b b x h b F.L.n.X.0.9XhX0X9XjX0XsXgX9X9XsXsXxXhX0X0XjXL.i r t d u t d w y t t y q y d u y y y t u w e r ",
"5.5.5.5.5.] ` ] ` ! D D D D z 2 = ~ T.s.X.I J.Q.@XL.&X@X#XQ.Q.Q.U.T.Q.!.!.-XbXq.* l t a u w k q t r u t w y d u t t y t e e u t ",
"5.] ] 5.5.] | 7.[ 7.' b D D x > + h s.G.9.$ $ $ $ # > = $   9.o.D A . , , } ,Xn > i t t e w y q q q r q t q t t t r t r r r r r ",
"5.' ` ] 5.5.7.7.! a.s.D E b b > > + n F.w.z   @ = = @ @ $ $ GXLXbXmXu.o.5 o.#X  h & t w q q % r & & r % t & q i r r r r r r r t ",
"7.a.l.K.K.K.K.l.s.' a.{ ! ! J = + > + 8.L.m + > : : = = @   D G.qX;XC.[.>XI.Z - > r r t & e d % q & & & & & r r r r r ; r r y i ",
"%X%X:X3X4X3X+Xs.l.k.L.q.8.q.6.> i = + z P.~     + @ = = $ # . , 8 _ *.=XuX[.u.  2 * % r r q r & & & & & & & & ; r r r ; r r r i ",
"4X%X:X:X:X4X:XK.l.OX+Xk.q.k.k.v + + > + ~ w.m ~ : = @ + # # . . 8 f.[.aX{.[.[.3 - * & t t q & r & & & & & & & & ; ; ; ; r ; r r ",
"4X#X#XT.K.T.T.l.s.+X%XK.e.6.y.J = + >   m F.^ ~ % : = = # # 5 / Y.<XiX{.Z.Y.=X/   - i r & q & & & & & & & & & & & & ; ; r r r ; ",
"9.7.7.a.9.` ] ! a.OX%X%Xq.J 6.6.h @ > > > c.~ n : @ : h 2 2 ..uX X.X.X(.(.{.{.C.3 - i & % r % & % % % % % % % % % & ; ; ; ; ; ; ",
"` 9.{ s.H.s.H.q.5.a.K.%Xq.J K e.i = z L : ~ x.w.L.y.e.8.E c ..>X'.(.).(..X X{.;Xd.h = r r ; + % % % % % % % % % % % & ; ; ; ; ; ",
"a.#Xs.E.#XE.:XH.! ' q.k.6.Q J 6.n = > m z m e.x.L.L.OX&X@XH.U.;X(.(.XX).XX.X'.=X#Xx = i ; & + % % % % % % % % % % % % * ; : : : ",
"9.0XH.T.:XK.:Xl.] ! ! 6.Q 6.V Q b = z m ^ 7 ~ x.P.oX@XOX@X!.!.|.(.(.>.XX). X XZ.I.2 - i + & % @ % % % % % % % % @ % % % * * ; ; "
};
