/* XPM */
static char *_62cf89f517e4c9ef39c4c725bb87878YuhMZoS2vc23UGod[] = {
/* columns rows colors chars-per-pixel */
"64 64 242 2 ",
"   c #8E0000",
".  c #940102",
"X  c #9C0101",
"o  c #9B0B00",
"O  c #910E00",
"+  c #9D1200",
"@  c #9F1A00",
"#  c #A40101",
"$  c #AC0201",
"%  c #A50C00",
"&  c #AC0C00",
"*  c #A4010B",
"=  c #AB010B",
"-  c #B40201",
";  c #BC0201",
":  c #B40B00",
">  c #BC0B00",
",  c #B3010A",
"<  c #BC010A",
"1  c #BD090C",
"2  c #A31200",
"3  c #AD1300",
"4  c #A51B00",
"5  c #AC1B00",
"6  c #B31400",
"7  c #BA1200",
"8  c #B31C00",
"9  c #BC1B00",
"0  c #AC0311",
"q  c #8B2C00",
"w  c #9A2600",
"e  c #923200",
"r  c #9D3700",
"t  c #AB2300",
"y  c #AB2A00",
"u  c #A42400",
"i  c #B32300",
"p  c #BB2400",
"a  c #B42B00",
"s  c #BB2C00",
"d  c #A73700",
"f  c #B53500",
"g  c #BC3400",
"h  c #B93900",
"j  c #B13C00",
"k  c #C10000",
"l  c #C20102",
"z  c #C50102",
"x  c #C00105",
"c  c #C60105",
"v  c #C30201",
"b  c #CB0202",
"n  c #C30B01",
"m  c #CB0B01",
"M  c #C3010A",
"N  c #CC010A",
"B  c #C5090A",
"V  c #CB0A0A",
"C  c #D20203",
"Z  c #D30A02",
"A  c #D3020B",
"S  c #D40A0D",
"D  c #DA0607",
"F  c #C21200",
"G  c #CA1202",
"H  c #C41B01",
"J  c #CD1808",
"K  c #D31501",
"L  c #CD0312",
"P  c #D60413",
"I  c #D31C14",
"U  c #E1050D",
"Y  c #C32400",
"T  c #C42B00",
"R  c #CB2E03",
"E  c #CA2406",
"W  c #D22605",
"Q  c #C43301",
"!  c #C33B01",
"~  c #CB3D01",
"^  c #CB3307",
"/  c #D23704",
"(  c #D72315",
")  c #D43618",
"_  c #E63F15",
"`  c #D23820",
"'  c #F03524",
"]  c #9A4900",
"[  c #A44400",
"{  c #AC4400",
"}  c #AD4B00",
"|  c #B34300",
" . c #BB4100",
".. c #BB4A00",
"X. c #B14B00",
"o. c #AB5300",
"O. c #AC5A00",
"+. c #A75900",
"@. c #B45600",
"#. c #BB5200",
"$. c #B45C00",
"%. c #BD5D00",
"&. c #B66300",
"*. c #BB6800",
"=. c #AB6600",
"-. c #C44400",
";. c #CD4301",
":. c #C64C01",
">. c #CB4E01",
",. c #CD460A",
"<. c #D64A0A",
"1. c #C55400",
"2. c #CB5200",
"3. c #C55C00",
"4. c #CB5B00",
"5. c #D35402",
"6. c #D35C02",
"7. c #D8550C",
"8. c #DB4B14",
"9. c #D84A17",
"0. c #DB5C13",
"q. c #CE5216",
"w. c #E3590A",
"e. c #E54A18",
"r. c #E6571B",
"t. c #C36400",
"y. c #CD6500",
"u. c #C36B01",
"i. c #CB6C00",
"p. c #D86805",
"a. c #C57400",
"s. c #CD7D00",
"d. c #D97506",
"f. c #DA6914",
"g. c #DA7414",
"h. c #E26A07",
"j. c #E36414",
"k. c #E76617",
"l. c #E67719",
"z. c #F2781D",
"x. c #EB7311",
"c. c #DA4824",
"v. c #DD5C25",
"b. c #E85A26",
"n. c #F94D35",
"m. c #F2512C",
"M. c #EA6324",
"N. c #EA6A26",
"B. c #F56625",
"V. c #EC7A23",
"C. c #F67428",
"Z. c #FF6A36",
"A. c #FE7637",
"S. c #FF7C43",
"D. c #FF7447",
"F. c #FF6F42",
"G. c #CE8600",
"H. c #D98705",
"J. c #DD9308",
"K. c #E89409",
"L. c #EC8519",
"P. c #F28C19",
"I. c #EC9817",
"U. c #F7991B",
"Y. c #EB8D08",
"T. c #EDA50E",
"R. c #FAA91C",
"E. c #FFBC1F",
"W. c #FDB61B",
"Q. c #FFBE0B",
"!. c #FC842D",
"~. c #F98926",
"^. c #FE9C2B",
"/. c #FD9626",
"(. c #FF8333",
"). c #FE8C33",
"_. c #FE8B3A",
"`. c #FA8438",
"'. c #FE9933",
"]. c #FF933E",
"[. c #FF9B3C",
"{. c #FF9235",
"}. c #FEAA23",
"|. c #FFAD2B",
" X c #FBA52A",
".X c #FFBB26",
"XX c #FFB22D",
"oX c #FEB628",
"OX c #FFA536",
"+X c #FFAB34",
"@X c #FFA53C",
"#X c #FFAC3B",
"$X c #FFB533",
"%X c #FFBB33",
"&X c #FFB33C",
"*X c #FFBC3E",
"=X c #FFC409",
"-X c #FEC41B",
";X c #FFC717",
":X c #FFC32A",
">X c #FFCC24",
",X c #FFCB33",
"<X c #FFC43B",
"1X c #FFC638",
"2X c #FFD42E",
"3X c #FF8A40",
"4X c #FF8B4B",
"5X c #FF8349",
"6X c #FF9343",
"7X c #FF9945",
"8X c #FF954B",
"9X c #FF9A4C",
"0X c #FF8E53",
"qX c #FF8250",
"wX c #FF9D55",
"eX c #FF9457",
"rX c #FFA544",
"tX c #FFAD44",
"yX c #FFA44E",
"uX c #FFAC4C",
"iX c #FFB543",
"pX c #FFBC44",
"aX c #FFB44B",
"sX c #FFBB4C",
"dX c #FFA453",
"fX c #FFAB54",
"gX c #FFA85B",
"hX c #FFB353",
"jX c #FFBB54",
"kX c #FFB65A",
"lX c #FFAB63",
"zX c #FFB762",
"xX c #FFB570",
"cX c #FFC345",
"vX c #FFC44B",
"bX c #FFC94C",
"nX c #FFCC44",
"mX c #FFC353",
"MX c #FFC65A",
"NX c #FFCB58",
"BX c #FFD14D",
"VX c #FFCB61",
/* pixels */
"$ - - $ $ - - - - - - - ; - - - < < ; ; ; ; ; ; M M ; M ; M ; - - - - ; ; k N c v k ; x < < ; ; ; ; ; - $ $ # # # # X X X .     ",
"- - - - - - - - - - ; ; ; ; ; ; M M ; - ; ; ; k x x < ; ; ; $ 1 < 1 ; ; ; k c k v k ; ; < < ; ; ; ; ; - - $ $ # # # X X X . .   ",
"- - - - - - - - - - ; ; ; ; ; ; M ; - - - - ; k k k ; - : - $ ; ; ; x ; k k k c M ; - - - - ; ; ; ; ; - - $ $ # # # X X . . . . ",
"; ; ; ; ; ; ; ; ; ; ; ; ; ; x x x ; ; - - - ; k v v ; > : $ : - ; ; v ; ; k k x < - $ $ - - ; ; ; ; ; - $ $ # # # # X X . . . . ",
"; ; ; ; ; ; ; ; ; ; k k k k k k ; k k k ; ; k v c N v v - : & ) I - > - ; ; ; ; ; - - - - ; v v ; ; - - $ # # # # # X X X . . . ",
"x x ; k ; k k k v k k k k v v k ; ; v b b v v c N N C k ; : o D.c.& : - ; ; ; k ; - - - ; ; c c ; - - $ $ # # # # # X X X X . . ",
"k k k k k k v v c v k v v v v k ; ; ; c b b b c c c N k ; & y yXA.6 : - v v k v ; - - - ; ; < < ; - - - $ $ # # # # # X X X . . ",
"k k k k k v v v b v v v v v v k ; ; ; M b b b c c c c M ; & 2.rX6Xi : ; M c k k ; ; ; ; ; ; ; < - - - - $ $ # # # # # X X X X X ",
"k k k k k k v v b b b b v v v v x M N M c b v b c N M ; : & 5X5.(.<.: ; M < x M ; < M c b v ; ; ; ; - - - $ $ $ # # # # X X X X ",
"; ; k k k k v k b b b b v v v v ; N c N b ; > > v n - : 3 5 eX4 k.C.% & - > : $ - - ; x c b v ; ; ; ; - - $ $ $ $ # # # # # X X ",
"; ; ; k v v v v v v v v b b v v v k b k ; H 8 i p 8 i i + B.D.o ..{.f y t 4 y y t 3 > M ; ; ; - ; ; ; - - - $ $ $ $ $ $ $ # # X ",
"; ; ; v v v v v v v v v b b b v b ; k m ; W qXgX9X(.8X6X6XeX^ 2 y _.yX7X7X7X].dX0X9.: - M M B ; ; ; ; ; - - - $ $ $ $ $ $ # # # ",
"; ; ; v v v b b v v b b b b b b b c b k L ; > B.dXV.y t R E & : : H R Q g g 8X4XQ : - ; ; ; ; ; k k ; ; ; - - - - - - - $ $ $ $ ",
"; ; ; k v v b b b b b b b b b b b b k N P v v > ~ _._.i & $ > - M B : & ;.eXZ.6 : ; v c k k x k k k ; ; ; - - - - - - - $ $ $ $ ",
"; ; ; k c c b b b b b b b b b b b b S b b Z b v > 6 C.8X9.6 ; c b ; 9 B.lX8.% : v v v ; ; M M k k k k ; ; - - - - - ; - - $ $ $ ",
"; ; k c b b b b b b C C C C b b b b b C C b b b v F 2 k.eX3 ; v c n Y lX! + : ; v v k ; x M c c v v v ; ; ; - - - ; ; ; - - - - ",
"k k v v b b b b b b D D C U b b n v b C D C b m b n 2 B.Z.: - ; v n 3 4X,.3 m k k k v ; B k b b b c c ; ; ; - $ ; ; ; ; - - - < ",
"v v v v v b b b b C C D D b Z v - > V b D C Z b b v i 8X8.& 3 Z.m.7 5 C.A.3 - N ; c v - - n m v b v v S ; ; - - ; x k ; - - ; < ",
"v c v k k v b b b b C C C Z m n : > ( V A P b b P v ;.9X4 g ].).[.).4 h dX5 > v v ; ; ( ) 8 > m n k S k c - ; ; ; k k ; ; - ; < ",
"c k x k k v b b C b C b m n > 6 T qXn.b b C D C D n k.~.0.gXj.w w !.gX>.[. .: v ; v ; $ F.0X/ & 7 ; V v ; B ; M ; k x k ; ; ; , ",
"v k x ; ; k b b b b c ; F 7 Y ;.jX!.> S C Z b b b > ~.cX7XT $ : : & 8.dXvXh.: V v ; n - & 4XkX4.! 9 ; x V - B ; ; x k k k ; ; ; ",
"v k ; < ; x b b C b v > 8 r.7.uX#Xu G b C v Z v b W uXx.2 H k b m n 6 s ~.[.G b c ; ; - F T #X+X6.Z.: ; ; v ; M ; x v v v k ; ; ",
"v k ; M M x b b C b > 9 r.).z.hX:.i n Z b Z b Z b ' _ : v c ; ; v v b > 6 n.J v v V ; ; ; p #.pXd.7Xb.& n k ; ; x M b b v k ; ; ",
"b v x M M k b b b b : 5 zXd.L.2.B.H n b b b Z b A b v b A A v I ( n n m v x n v v k k V ; Y !.%.d.L.dXQ > v > - ; c b c c x ; ; ",
"b v v x x v b b b n p 0.jXO.@.tXe.n b C A C b Z C C C b C C v K ' F.<.3 m b n n b k B k v > j.hXt.$.&Xh.R - > > v v b N N c k ; ",
"b b b c v v b b b > M.g. X&.mXz.7 k b b b C b b Z Z b b b S b ; F / wX3XY n > n k c c c v n 3 j.MXH.}.y.A.6 7 - v k c N N c k ; ",
"C b b b v v b b v W 3Xt. X*Xl.5 ; A v k v Z b Z b Z b ; > ; ; m n F T wXhX5.3 > v c A b ; n - s y.$X*X#.rXg : n ; k c c b c k ; ",
"C b b b v v b b ; e.fX&.<X&.6.T b P c v v v v v b Z > R w.~ H G v v n 8 @XMXM.& n k b N c ; V H z.O.#Xt.sX2.: ; ; ; k b b b x ; ",
"C b b b v v v n > r.tX*.=.I.4X- v c b b v ; b b Z - ~ +X1X$X0XF v b Z ; Q rXcXp.& v k v b b k > (.@X} t.vX6.# ; ; ; k v b v ; ; ",
"b b b b v k v n > 8.mX+.H.mXY v m b C b v k m v ; / OX.X>XR.! > c A b K > <.1XoX~ : n ; v Z c ; i hX^.$.*X6.3 ; ; x k v v k ; ; ",
"c c c c v k v n E <.&XG.1Xd.> S b k b v b V k > !  X,X>X}.j & v v k b v Z : /.<X'.5 ; b n ; N V 3 >.cXI.#X5.^ $ ; k k k k ; ; ; ",
"v v b b k ; k n e.>./.|.U. .K b b v v k v b k / OX:X:X,X+Xh 6 n v c v k D n :.cX*X2.- m ; n b k 9 ,.d.1XP.>.b.: v v k k k ; ; - ",
"v c C b ; v b v A.p.y.aX{ C.K b b v b v b k m B.*X1X+X4.&XiX! : B ; v m C b Q #X<XP.: A ; k C b 7 A.| +Xt.f.A.# ; x ; ; k ; - $ ",
"b b C b ; v N v x.^.#.g.g.(.v Z b v v v m v - 6 ~.#Xs 3  .tXhX>.$ J ; b D b 6 '.:X}.H ; k v b b : A.~.%.&.[.M.& ; ; ; ; k ; - - ",
"b b b v ; v A n 5.nX%.r jXj.; D b b k ; v n n > n K v G 7 ~ &X&X2.% K C U b 8 '.;XW.R - B B ; n : 8.MXO.$.jX9.: ; ; ; ; ; ; ; ; ",
"b b c v ; v N n ! vXg.u.MXf n C b b k v x k n b A b D b v : 2.&XpX5.> Z C b t ^.=XW.R ; x ; ; > : a vXG.H.sXp - - ; ; ; ; ; ; ; ",
"b b b v v v N n 5 [.$XJ.#Xf F b C b k c M M N c k b b v m F 6 ;.&X<Xw.6 m > f }.=XE.Y b v ; x : 9 -.I.W.XX/.8 > - ; < ; ; ; ; ; ",
"b b b b v v N ; ^ 3.%XoXH.6.R n Z b v k c L P N n > m b m ; v : :.pXbXh.6 2 3.:X;XoX9 v b v x : ^ f.u.1X X| r.: - ; ; ; ; ; ; ; ",
"v b c b b b v : N.#.i.BX@.V.e.n b b m v c N c b : Y n v v S V ; 6 5.pXcXl.q T.>X-XI.6 k b c b : >.^.[ mX#.f.b.& - ; ; ; ; ; ; - ",
"k v c b C b k : ,.kX[ K.t.7Xr.: m v b v b b k G e.wXA.Y 7 - - F 7 2 i.1X%XR.-X-X1Xp.: V c b b : 4.|.3.p.| xX! & - ; ; ; ; ; - - ",
"k v c b b b v > 3 9X+XO.} hXC.3 n k Z v n > : B.VXP. XsXP.2.h t 8 4 q H.2X;X=XE.[.i v N v b v 6 d.<X{ ..zX`.+ & - ; ; - ; ; - - ",
"v v v b b b x > & ! MX+Xd @XC.<.7 m v n > 3 ! {.[.{ d L.pXvX+X/././.XXE.Q.=X=X.X-.& v A b v H 7.d.%X[ zXyXy 5 $ - ; - - - - - - ",
"b b v v k k M < : 5 7.mXU.|.~.0.M.3 n ; : w.sX'.5 : : : / (.&X1X,X>X-X;X>X-X-X.X~.4 ; v > & C.p.H.|.OXhX:.o & - - ; - - $ - - - ",
"b b v ; ; k M M - & h 1.pX|.OX..uXg F > e.fXaX2.: k M x > 9 -.x.U.oXoXR.Y.y.d.pXtX(.F n : i jX$.I.<X Xd q.6 $ - ; ; ; - $ $ - - ",
"b v x ; ; ; k k c : r.p.r '.sXo.bX6.7 F ].kXB.5 7 - ; x x ; $ : 6 9 T 8 6 3 3 j.hX7X9 - 3 M.fX$.&XH.e V.c.$ > - ; < < , $ $ - ; ",
"v v M M ; ; k k ; - 3 _.!.[ a.*.}.OXT 6 >.5.6 - > - x M ; k k V c v B ; v n - & 7.y 9 & a [.rX@.&.o.rXA.& - - ; < < < , $ $ - ; ",
"v v k ; ; ; x x ; ; 7 p tXcXJ.] a.&Xp.k.t 3 v L ; ; c k ; n c v c b ; v n k Z k $ % % C.3.cXu.O.T.BX3X3 & - - < x ; ; ; - $ - - ",
"c k v k ; ; < < < - > : y U.VXvXs. Xd.l.].5 ; N k ; c k ; ; ; b b C b k v v k b - 5 4Xl.u.$XI.bXnXd.5 - - - 1 ; ; ; ; - - $ $ - ",
"; x v k k ; ; ; - - 1 : & s 0.).jX+XsX@.sX{.3 : ; ; ; x k k b b v C b b v ; ; : 4 6XhX@.+X&X@Xl.7.p > > ; ; ; ; ; ; ; - - - $ $ ",
"; ; x k k ; ; - - - - > $ 7 e.7.{ $.a.u.O.#X_.s & $ : - ; ; ; ; F - > ; ; $ 3 t ).tXo.&.*.} { 0.m.J ; ; ; ; ; x ; ; ; - - $ $ $ ",
"; ; ; ; ; ; - - - - - - > $ 6 S.rXU.K.J.G.H.pXuXN.f O t h s i 5 5 ~ ~ i 4 f l.aXpXI.H.K. X#XhXC.H ; ; ; ; ; ; ; ; ; ; - - $ $ $ ",
"- - ; ; ; ; - - - , - - - : 6 o >.~.|.1XcX*XK.u.t.f.!.gX_.f.0X4XwXN.V.fXyXg.%.&.G.R.%X X^.).f 5 - v n ; ; ; ; ; ; ; ; - - $ $ $ ",
"- - - - - - - - $ , - - ; $ $ 6 % a 1.{ r e ] *.K.$XjX1.X.].v.a q.`.4.{ #XBXR.G.o.q e | 7.a & $ n v ; ; k k ; x ; ; , - - $ $ # ",
"- $ $ - - - - - , $ < < - - $ - - & c.S.].rXsXiX*XP.d f.fXf + 2 2 a 7X~.e i.XXcXjXhXdXD.c.: > ; ; ; k ; k x ; ; ; - - - $ $ # # ",
"$ $ $ $ - - - - - < - M ; - B - ; ; - 6 b.N.N.r.h t !.9X6 : : : : : & 5XwXh w -.0.9.` 7 - ; ; ; v n B ; - ; ; - - - - $ $ # # # ",
"$ $ $ $ $ $ - - - ; ; - ; < ; ; ; - M - # o & & 6 ^ 0X8 - x ; ; k v n - D.e.o 3 % & $ < B v ; k v - ; ; ; ; - - $ $ $ $ # # # # ",
"$ $ $ $ $ $ $ - - ; ; ; ; ; ; ; ; ; ; - $ $ - 1 : : : - ; ; v v b v k ; - : & : - - ; ; ; ; ; - ; ; ; ; ; - - $ $ $ $ # # # # # ",
", - $ $ $ $ - - - ; ; ; ; ; ; ; ; ; - - - , , 1 ; - - - - ; k v b b k k ; - - ; - - ; - - - - $ - - - - - - $ $ # # # # # # # # ",
", - $ $ # $ $ - - - - - ; ; ; ; - - - - - - ; ; ; - - $ - - ; ; k k ; ; ; ; ; ; - - - - - , 0 = - - - - $ $ $ # # # # # # # # # ",
"- - $ # # # $ - - - - - - - - ; - - - $ - ; ; ; - - $ $ $ $ - ; ; ; ; ; ; ; ; ; ; - - - , = 0 = - - - $ $ $ # # X # # # # # # # ",
"- $ # # # # # $ $ $ $ $ $ $ - - - $ $ $ - ; ; - - - $ = * * , < ; ; ; ; ; ; ; ; < , - - , $ $ $ $ - - $ $ $ # # # # # # # # $ # ",
"- $ # # X X # # $ $ # # # # $ $ $ $ # # - - - - - $ = * * * $ - - ; ; ; ; ; ; ; , , $ $ $ $ $ $ $ - - $ $ # # # # # # # # $ $ $ ",
"- $ # # X X X # # # X X X # # # # # # * # $ $ - $ $ # X # # $ $ - ; ; ; ; ; ; - - $ $ $ $ $ $ $ $ $ - $ $ # # # # # # # # $ $ $ ",
"- $ # X X X X # # X X X X X # # # X * * * # $ $ $ # X X # # $ $ - - ; ; ; ; - - - $ $ $ $ $ $ $ $ $ - $ $ # # # X # # # # $ $ $ "
};
