/* XPM */
static char *c100df8b503942d9b7a883be4358e029dUobrCxrcAwZ7WTr[] = {
/* columns rows colors chars-per-pixel */
"64 64 249 2 ",
"   c #040301",
".  c #0A0905",
"X  c #0B0906",
"o  c #140A02",
"O  c #160A02",
"+  c #1C1105",
"@  c #171208",
"#  c #1B140A",
"$  c #1B1A17",
"%  c #240E01",
"&  c #241203",
"*  c #2C1401",
"=  c #271809",
"-  c #2C1B0B",
";  c #321600",
":  c #331A02",
">  c #3B1C02",
",  c #3A1D0C",
"<  c #261B15",
"1  c #3A240A",
"2  c #2F2A1B",
"3  c #392814",
"4  c #1E2028",
"5  c #292729",
"6  c #2A2C33",
"7  c #303037",
"8  c #36353A",
"9  c #421F01",
"0  c #442202",
"q  c #4B2501",
"w  c #492908",
"e  c #4E2E0C",
"r  c #532B02",
"t  c #552B06",
"y  c #54330B",
"u  c #5A3409",
"i  c #5C3409",
"p  c #462A14",
"a  c #4A3415",
"s  c #573716",
"d  c #653807",
"f  c #653A0A",
"g  c #6B3D0A",
"h  c #653B17",
"j  c #703917",
"k  c #4A382B",
"l  c #623E22",
"z  c #5E4417",
"x  c #6B4107",
"c  c #6D410B",
"v  c #73440C",
"b  c #76460C",
"n  c #7C4B0D",
"m  c #7E500F",
"M  c #68461A",
"N  c #744511",
"B  c #7B4D12",
"V  c #764618",
"C  c #7B5217",
"Z  c #57472E",
"A  c #684724",
"S  c #784A26",
"D  c #6A512B",
"F  c #7A582A",
"G  c #6A583B",
"H  c #745936",
"J  c #7C652D",
"K  c #2B3549",
"L  c #363A45",
"P  c #333E55",
"I  c #38435A",
"U  c #3A445C",
"Y  c #3C4965",
"T  c #524E4F",
"R  c #494D59",
"E  c #68554A",
"W  c #6F6355",
"Q  c #434E66",
"!  c #4D5364",
"~  c #46526C",
"^  c #4B556D",
"/  c #545968",
"(  c #465371",
")  c #495673",
"_  c #4D5975",
"`  c #4E5B7B",
"'  c #525C74",
"]  c #515E7C",
"[  c #5A6175",
"{  c #53607D",
"}  c #5B637B",
"|  c #6E646C",
" . c #63677C",
".. c #833F25",
"X. c #834D0D",
"o. c #83520E",
"O. c #8A530E",
"+. c #8F580F",
"@. c #935A0E",
"#. c #864B17",
"$. c #845313",
"%. c #8A5612",
"&. c #8D5A13",
"*. c #82551B",
"=. c #86581A",
"-. c #8B5B1A",
";. c #965917",
":. c #935C14",
">. c #995D14",
",. c #935D1A",
"<. c #A05B16",
"1. c #8A651D",
"2. c #966317",
"3. c #9B6214",
"4. c #94621A",
"5. c #9C621B",
"6. c #A46819",
"7. c #A56B1A",
"8. c #A96D1C",
"9. c #A9771C",
"0. c #B4781D",
"q. c #854C26",
"w. c #934B2B",
"e. c #875627",
"r. c #97592A",
"t. c #875A35",
"y. c #8B5A32",
"u. c #965B34",
"i. c #A45C2C",
"p. c #A65B34",
"a. c #8A6726",
"s. c #966824",
"d. c #997625",
"f. c #876937",
"g. c #996538",
"h. c #90743A",
"j. c #A76826",
"k. c #A87725",
"l. c #B47526",
"z. c #A76737",
"x. c #B66C38",
"c. c #AA7838",
"v. c #B9753B",
"b. c #C17A11",
"n. c #C7762F",
"m. c #C6763B",
"M. c #896445",
"N. c #937345",
"B. c #967946",
"V. c #AB6E42",
"C. c #A87947",
"Z. c #B57845",
"A. c #C67A43",
"S. c #D47C46",
"D. c #AE811E",
"F. c #B8861D",
"G. c #A8832A",
"H. c #AB852C",
"J. c #B68726",
"K. c #BB8C23",
"L. c #B48B2B",
"P. c #BB922B",
"I. c #AE8836",
"U. c #BA9333",
"Y. c #C2891A",
"T. c #CA941E",
"R. c #D69A1B",
"E. c #EEAA1E",
"W. c #C48A26",
"Q. c #C39224",
"!. c #C2942B",
"~. c #CA9929",
"^. c #D79B27",
"/. c #D6982F",
"(. c #C48636",
"). c #C49C32",
"_. c #CA9C32",
"`. c #C99838",
"'. c #CCA12C",
"]. c #D9A428",
"[. c #DBA42B",
"{. c #CCA135",
"}. c #D5A334",
"|. c #DCAB33",
" X c #D7A738",
".X c #DBAC3B",
"XX c #DDB13C",
"oX c #E3AB2B",
"OX c #E9AA29",
"+X c #EBB42C",
"@X c #F4B325",
"#X c #FAB625",
"$X c #F4B52C",
"%X c #F3BC2C",
"&X c #FBBB2C",
"*X c #E2AC37",
"=X c #F0AF30",
"-X c #E8B539",
";X c #F3B632",
":X c #F5BB34",
">X c #F9BD32",
",X c #F4BE3A",
"<X c #FBC429",
"1X c #FCCB2C",
"2X c #EEC039",
"3X c #F8C638",
"4X c #A88549",
"5X c #B5894B",
"6X c #BA954F",
"7X c #AB8E55",
"8X c #B38D56",
"9X c #B4955B",
"0X c #B99658",
"qX c #A79460",
"wX c #A89563",
"eX c #BA9D62",
"rX c #C88649",
"tX c #D38F50",
"yX c #C59A54",
"uX c #E59A5A",
"iX c #D8AD42",
"pX c #D9AE42",
"aX c #C7A157",
"sX c #CBA45B",
"dX c #E5AA4F",
"fX c #E5B843",
"gX c #CAA765",
"hX c #D3AE6C",
"jX c #F1A764",
"kX c #FACA45",
"lX c #525F81",
"zX c #556383",
"xX c #5A6584",
"cX c #5A6687",
"vX c #5A6789",
"bX c #5D6A8C",
"nX c #5E6C91",
"mX c #626B85",
"MX c #626C8C",
"NX c #616E93",
"BX c #647195",
"VX c #697496",
"CX c #65739A",
"ZX c #69769C",
"AX c #6B799D",
"SX c #6C7AA3",
"DX c #6B7AA4",
"FX c #707EA6",
"GX c #7481A9",
/* pixels */
"u t u t u f f g g c N N N b N B B B B $.$.=.$.%.%.o.X.n n b c c b n v n X.o.o.X.g h F *.e.C.C.C.7X9X9X9X9X7X9X8X4X4X4X5X6X6X6XyX",
"y y u t i f g g c c N N b b N B B B B C $.=.$.$.X.n n n v g g v b n b X.%.%.%.o.c M e.e.e.C.Z.5X7X9X9X9X9X8X9X9X5X5X5X6X6X6X6X6X",
"u u i u i f g c c c N N v v c c v v v B n $.n n n n n n v b g b n X.X.:.:.:.%.O.v M e.e.e.5X8X8X0X9XeXeX9X8X9X0X6X6X6XyXyXyXyX5X",
"i i i u d g g d d g c v v v b b n X.$.%.%.,.%.%.$.o.o.o.o.X.v n o.O.X.:.:.:.%.%.v M e.e.a.8X0X5X0X0X0XeX0X8X0X0X6XyXyXyXrXyXyX5X",
"i i f i d c g g v v n n n n n n o.o.%.&.%.,.%.&.%.O.O.O.%.%.n X.%.%.O.:.:.:.:.:.b s A M A G G H B.eXeXgXgX0XeXyX6XaXyXyXrXyXyXyX",
"f f f d g v g g b b n n n n $.o.o.%.%.:.:.,.:.:.&.+.%.&.&.&.o.o.&.+.O.>.:.;.5.-.w O @ @ @ # # O @ Z wXhXgXgXgXgXyXaXyXyXyXrXrXyX",
"f f f d g v v v n n n n n o.$.$.%.%.&.:.:.2.:.:.:.:.:.:.:.:.o.O.:.+.O.:.:.:.e.1 O @ # # # # + + @   2 qXhXgXhXhXaXaXaXyXyXrXyXaX",
"f f g d g v v B n n n n n o.o.o.O.&.&.:.:.2.:.:.&.&.:.:.:.%.O.%.:.;.%.3.:.b - X O @ = - 1 1 3 2 # X   2 eXgXhXhXsXaXaXyXaXyXyXsX",
"f d g d g v b n n n n n n m o.o.O.&.&.:.:.:.&.:.&.+.+.:.&.:.%.&.3.:.%.3.:.i % & 3 s t.g.z.y.p + O X     G gXgXgXyXaXsXsXsXsX6XyX",
"f d g d g v b n n n n n n o.o.o.%.&.&.:.:.:.&.:.:.&.+.&.&.:.%.:.3.>.+.5.3.%.V e.z.A.rXA.m.g.p + O X     $ qX0X9X4X5X0XaXaXsXsXsX",
"f g g d g v b n n n n o.o.o.o.%.%.&.:.:.:.4.&.:.:.&.&.&.+.:.O.+.3.>.+.7.7.>.j.x.m.m.rXv.v.y.p & O O     X G 4XB.f.h.h.4X5XyXgXsX",
"g g c d g v n n n X.o.$.$.$.$.-.%.:.4.4.:.4.&.:.:.&.&.&.&.:.O.:.>.>.;.7.7.s.v.v.v.z.Z.v.x.q.a - = + X     Z B.N.f.f.f.f.h.7XaXaX",
"c c v g g v n B $.$.$.%.$.$.-.&.&.:.2.2.4.2.&.:.:.&.&.:.:.:.%.:.>.>.;.8.7.j g.S s A y.z.v.z.h 3 - = = O   Z B.N.f.f.f.f.f.B.8XgX",
"v v v g v b n $.$.$.$.$.o.C *.-.&.,.2.4.:.2.&.:.:.&.:.:.:.:.O.>.3.>.;.8.j.V A u.h S y.g.Z.m.S p s q.p.s X Z B.N.f.f.F f.f.h.7XhX",
"v b b g N b B $.$.-.-.$.i : - w s s M *.=.&.:.:.:.&.:.:.:.+.O.>.3.>.>.l.k.V y.A.q.h q.v.rXv.e.h y.p.A.w.+ G N.f.f.f.F f.f.f.B.gX",
"b B B v B C $.=.=.4.*.h 1 + # + + O = = 1 i %.:.:.:.:.:.:.:.O.:.3.>.5.l.l.j.A.A.m.i.m.tXA.i.q.V y.p.m...= H f.f.F F M F F t.f.0X",
"B B C N *.e.=.-.-.s.C 1 O = # + # = # O + : B 2.:.:.:.:.:.:.O.:.3.>.5.l.l.n.tXm.m.S.tXS.z.q.V V r.x.m.e # D D M z M s i s M F 9X",
"B C *.N *.-.=.-.4.V = O # = + + + = = & & & M 2.4.4.:.:.:.:.:.3.3.>.5.l.k.(.tXx.i.Z.Z.z.e.V V V x.S.w.* O a z s i i u u y y M 7X",
"B C *.N *.=.-.-.-.e O + = p 3 1 p s p 1 * & u :.4.:.:.:.:.:.+.3.3.:.>.l.8.j.j S t.t.t.q.V V V V r.q.t 0 O a s s y y y y y y M 4X",
"b B $.N C =.$.-.=., + = a q.e.Z.Z.Z.Z.g.h , w C o.o.o.$.O.O.X.:.>.:.2.k.k.j.V q.u.S F S M M h h q.#.N d > w s s y y y y w e D 7X",
"v b B N B =.$.-.*.1 = 3 g.tXtXuXuXuXtXrXz.M > u i i d d g c g $.:.:.>.j.8.k.V h S q.t.S M h s s q.r.r.N f y s s.M y e e e e H 9X",
"x c v v B m $.$.*.: + k Z.uXuXjXjXuXtXrXv.y.e u r r r r r r t N :.:.>.j.8.8.%.w.z.z.t.D h e s M e.r.r.#.n N f k.L.N y e e e f.0X",
"g x c g b b $.o.$., O s Z.uXjXjXjXuXtXrXv.g.y u t r r r r r r c &.:.>.j.7.8.%.j q.y.F A s a s S e.r.r.;.%.#.#._.oX!.k.d.B y h.8X",
"x x c g v b o.o.$.S , A rXuXjXjXjXuXuXrXZ.u.t u r r r r r r r f -.:.>.8.7.j.,.V F S s a a s M S e.r.r.r.;.;.l.=X@XOX/.=X=XY.I.I.",
"x x c g b b o.o.%.x.u.A Z.V.z.g.z.A.x.S h s r t r r r r r r r d =.:.>.7.7.8.5.=.h M y e e s A S e.r.j.j.j.j./.@X@XOX`.OX#X@XOX/.",
"x x c g v b $.o.-.A.x.t.g.y.A h j V.q.s s h r r r r r r r r r d =.:.>.8.7.8.7.j.B a.s.e.h h V S e.z.j.j.j.l.;X#X#X=X(.OX@X@X@X@X",
"x c c g v v n m $.v.rXc.V.Z.u.u.z.Z.r.t.e.e.t r q q r r r r r d =.:.5.8.8.8.7.j.X.s.s.s.4.g V S r.z.j.j.x.W.OX$X#X:X(.;X@X@X$X$X",
"x c c g v c b n o.r.Z.V.Z.A.tXuXv.rXr.g.Z.e.r q q r r r r r r d -.:.j.8.8.8.7.j.$.k.W.W.9.g q.q.r.j.j.j.v.W.b.^.E.OXl.;X@X@X$X+X",
"c c c g v c b n C Z k M.C.Z.A.A.x.tXz.g.g.V 0 q q r q r r t t g &.>.j.8.8.7.7.k.J.[.W.W.0.;.=.r.r.r.z.x.(.b.W.$X@XE.^.OX@X$X$X@X",
"c c g g v v n n H / k M.C.Z.A.rXZ.V.q.y.y.y ; > 9 0 q r r r t g 2.;.7.8.8.7.8.W.[.[.K.~.R.^.<.r.r.z.x.A.tX(./.&X&X&X@X@X@X&X$X$X",
"x c g g c V G E  .MXE g.C.Z.5Xg.l s p A t.0 * * ; : 9 r r r r c :.:.5.8.8.7.J./.^.[.Q.~.E.#X0.r.i.z.A.m.dX(.OX<X&X&X@X@X$X&X$X$X",
"c c c A E |  .xXVXVX .M.g.C.C.y.q.w.j A h ; % * * ; > q q q r v +.+.5.8.7.7./.[.[.[.oX~.^.#XR.i.i.r.x.l.dXl.;X&X&X&X$X$X&X&X$X;X",
"c A E |  .mXMXbXNXZXNX| M.f.N.C.z.r.w.t.w - = & & * ; > 0 q r N +.O.5.8.7.9.|.*X*X*XoX^.oX#XOXj.r.r.r.`.`.[.>X>X>X&X$X&X&X&X$X>X",
"E / } xXxXMXMXMXMXVXVXbX[ W M.B.C.C.N.A - < < - = & * ; 0 q r B :.:.5.7.7.9.*X*X*X|.].[.[.oX$Xl.q.q.g.pX/.,X>X>X>X:X>X&X>X$X;X>X",
"} } xXmXMXbXbXNXNXnXCXZXNX} T E G Z a # # < < < 8 = * ; 1 q t $.3.;.5.8.7.l.*X-X*X|.}.|.[.}.oX}.#.S c.`.,X,X,X:X:X:X>X>X:X$X;X:X",
"xXxXxXMXMXbXvXVXCXNXnXAXSXxXK 6 5 X     $ < < L R < * ; 0 q g :.3.;.5.8.7.J.*X-X*X*X}. X|.|.|.,Xs.S c.*X,X,X,X,X:X:X>X:X;X;X:X;X",
"xXxXvXbXbXbXbXNXCXCXnXVXVX7     X X     5 8 R ! / 5 * : 0 q n 5.3.>.7.8.7.!. X-X|.-X X.X.X.X|.,X`.e.`.,X,X,X,X:X:X:X>X:X;X:X:X:X",
"zXbXvXbXbXnXNXNXZXCXCXbXxX5   $ L L 5 5 L R ! / ' 8 * : 0 q B 3.3.>.7.7.7.`. X-X X-X XpX.X.X-X,X,XW.:X,X2X3X3X<X<X3X>X:X:X>X:X:X",
"xXbXvXbXvXNXCXNXSXSXCXnXNXP U ' ' ' R R ! / ! / ' R = ; 0 0 v 3.3.;.7.8.8.{. X-X X*X.XpXpXpXfX-X-XdX3X2X2X3X1X<X<X<X<X&X&X>X:X:X",
"vXbXNXnXzXCXZXCXDXSXZXCXZXZXCXlXMXBX} [ [ [ / / ' R = : 0 0 d :.3.>.j.8.0. X X.X X.X.XfXfXfXfXfX-XkX3X3X3X3X1X<X<X<X<X<X<X<X&X;X",
"zXnXCXCXbXDXDXDXDXFXAXAXSXFXBXzXZXAXMXxXmX .[ ! ' R = : 0 0 u &.3.>.j.7.J..X X.X XXXfXfXfXfXfX,X%X1X3XkXkX3X1X1X1X1X<X<X<X<X<X+X",
"] nXDXZXBXFXGXFXGXGXAXSXFXGXvXxXZXAXZX} mX .[ R } R - > q q r %.3.>.j.7.!..X X.X.XpXfXfXfXfXfX-X%X1X3XkXkX3X1X1X1X1X1X<X<X<X&X+X",
"` NXDXSXCXDXFXGXGXGXAXFXGXGXzXMXVXAXSXxX} } [ R { ! - > q q q B >.+.j.7._..X X*X XpXpXfXfXfXfX-X%X1X3X3XkX3X1X1X1X1X<X<X<X<X%XoX",
"` vXCXCXBXDXFXFXFXAXAXFXGXGX{ NXVXAXDXxX[ } / R ' ! < > 0 q q b @.+.7.7.}.|.|.-X.X.XpXpXpXfXfX-X%X<X:X-XkX3X3X1X<X<X<X<X&X%XOXQ.",
"` ` nXnXvXSXDXSXAXZXAXAXGXSX] BXCXCXSXMX[ } / R ^ ^ < - > 9 9 c +.O.2.7.}.*X*X-X|. XpXpXpXXXXXXX+X<X:X*X-X2X3X<X<X<X<X%X%X@XoXK.",
"lX) vXzXzXDXCXNXVXZXAXZXGXVX_ VXZXBXZXMX[ [ / ! Q ' 4 < ; > > f +.X.,.7.}.*X-X-X|. XpXpXpX.X X.X-X%X+X|.XX-X2X2X2X%X%X%X+XOX[.K.",
"xX( zX` nXCXBXBXVXVXZXAXGXMX] VXZXAXAXMX' } ' ' ! R 5 5 * ; > i O.X.,.k.}.[.[.[.[.Q.).`.).{.{. X|.-X+X|. X-X%X+X+X+X+X+XoXoX[.!.",
"vX~ ` ` bXBXBXnXBXBXVXAXFXxX] VXCXBXZXBX^ [ ' ' ! 7 5 7 = ; > u O.X.,.k.{.].R.^.Y.9.U.U.U.U.).{.'.oX+X|.{.|.+X+XoXoXoX[.[.[.^.!.",
"vX( ) ) zXbXNXnXbXbXBXAXAX_ { VXCXbXVXBX^ ' / _ ! 7 5 8 - ; > r $.n ,.2.J.oX[.R.Y.F.P.H.H.P.).U.~.+XoX|.{._.|.~.~.~.~.~.~.Q.Q.K.",
"zX) ~ _ ] vXnXnXbXxXMXVXBX^ xXCXVXbXBXBX^ ! ! ! R k D D s 0 w e n n &.J.~.R.[.^.T.Q.9.k.k.H.U.L._.oXoX}.}.).)._.P.J.J.P.!.K.D.9.",
"zX` Y ( ) zXvXbXvXxXbXNXbXQ xXCXNXbXbXBX' R ! ! E u.r.p.u.V e.c.H.P.Q.Q.T.R.R.[.[.T.Q.Q.d.d.H.L._.oX[.}.}._.P._._.K.K.K.K.K.9.9.",
"zX] Y ~ ) zXzXvXzXzXxXbXzXU bXBXvXzXlXbX{ U ! E t.V j p.r.V N c.`._.}.T.T.T.R.R.T.Q.Q.J.4.d.H.U.).[.[._.{.{.!.P._.~.Q.K.K.F.D.9.",
"{ ] ~ U I ) zXzXzX{ xXbX~ U nXbXxXzXvXbXxXI R M.C.h.g.u.q.V e.e.U.!.!.K.Q.F.Y.T.Y.F.0.1.C s.H.U.U.[.[._._.{._.P.!._.~.Q.K.F.D.9.",
"] ` Q K P ( zXzXzX{ zXxXP ( bXvXzXzXxXvXxXR T N.sXC.y.S S w.V.V c.J.J.D.K.K.0.F.F.7.7.M w z G.L.L.'.~.~.).{.{.).P.!._.!.Q.F.D.9.",
"` _ ~ I ` zXlXzXzX{ zX_ P { vXvXzX] zXxXxX^ 8 H gX4XA S q.q.g.t a.k.d.d.J.G.9.9.k.4.e.p & Z I.H.H.'.'._.!.)._._.!.J.!.!.Q.K.F.D.",
"_ _ ~ I ` ` ` zXzX{ { I Y xXzXvXzX) ` zXzX' L Z 9Xh.h t.q.q.s = A C C 1.1.1.1.1.C M a & - f.G.H.L.'.[.'.).).)._._.P.J.P.!.P.K.F.",
"_ _ ) P P Y Y ( ] { ^ K ] zXzXvXzX) _ ` lX` U 8 T 3 , s S A Z = 1 w a z z M z y a 1 & O 3 h.I.U.U.'.'.'._.)._._._._.P.J.L.P.K.K.",
"_ _ ) K P ) ` ` { ' P U zXzXzXzXzX) _ ) ` ` ~ 7 8 7 k p 3 G H % & 1 1 1 1 1 1 : = + O O = D I.U.U._.'.~.).).{._.).).).P.J.J.K.K.",
"_ _ ^ P Y ` ` ] { ~ K ` zXzXzXzX] ~ _ ` ` ` _ L 7 L L 8 8 G M * * w e : * * * & O O O O & = Z J a.G.K.K.L.L.U.).).).).U.P.J.J.J.",
"' _ ^ I Y ` ` ] ` I U zXzXzXzX{ ) ~ _ ` ` ` _ U 6 L L L L Z D ; * > > ; * * : & O O O O & O 2 J a.s.d.1.1.1.1.d.d.k.H.H.L.L.G.d.",
"] ' _ I Y ` ` ] ^ P ( lXlXlXzX` ~ ) _ _ _ ) ) Q 6 8 L 7 8 k l * * * ; ; ; ; : & O O O O + O X 3 f.d.d.d.G.G.d.d.d.d.d.a.1.1.C N ",
"' ) ~ P Q ` ` ] Q I ` ] ] lX] _ ^ ) ) ) ) ) ) ~ K 6 L 6 8 6 O & * : > ; ; ; * % O O O O + X X X 2 D a.G.L.L.U.L.L.L.L.G.d.s.a.1.",
") ~ Q I ~ ` ` _ U Q ` ` lXlX] _ ^ ) ) ) ) ~ ) ) P 4 L 6 7 6 O & * > w : : : ; % O - 3 a # X X X X @ @ = 3 F a.d.G.H.G.k.d.a.a.C ",
"^ ~ ~ U ( ` _ ) U ) ` ` ] ] ] ) ~ ~ ( ) Q ~ ~ ( U 4 6 5 6 6 O + * > i : : ; ; % + s z a O X X X X X X X X # = 3 s M M z a 1 - + "
};
