/* XPM */
static char *_361e3ae0ed74ec3a1741211fd5848085n1XhfrXXnKFb2bn[] = {
/* columns rows colors chars-per-pixel */
"64 64 249 2 ",
"   c #010006",
".  c #02010B",
"X  c #09040D",
"o  c #020213",
"O  c #0B0514",
"+  c #0A0914",
"@  c #01021C",
"#  c #08081A",
"$  c #0C0B1D",
"%  c #120A17",
"&  c #130D1C",
"*  c #15121E",
"=  c #020323",
"-  c #0F0520",
";  c #040924",
":  c #0D0C24",
">  c #00012A",
",  c #050B2B",
"<  c #0C0E2A",
"1  c #140C23",
"2  c #140D28",
"3  c #0C1125",
"4  c #0D132C",
"5  c #121224",
"6  c #12132C",
"7  c #19182A",
"8  c #040935",
"9  c #0C1334",
"0  c #0C153A",
"q  c #131535",
"w  c #131934",
"e  c #1B1D34",
"r  c #141C3B",
"t  c #1B1D3B",
"y  c #28132A",
"u  c #27182B",
"i  c #261C36",
"p  c #2C1C32",
"a  c #371E35",
"s  c #1D2334",
"d  c #16213B",
"f  c #1C223B",
"g  c #2A272C",
"h  c #292537",
"j  c #21243C",
"k  c #23293D",
"l  c #36263A",
"z  c #39353A",
"x  c #42343E",
"c  c #040A48",
"v  c #0C1648",
"b  c #151D44",
"n  c #060D58",
"m  c #0B1558",
"M  c #141A55",
"N  c #1C2543",
"B  c #192646",
"V  c #1B254B",
"C  c #1E2A49",
"Z  c #1C2954",
"A  c #1F3156",
"S  c #222743",
"D  c #242C43",
"F  c #2B2B45",
"G  c #232C4B",
"H  c #382B44",
"J  c #263147",
"K  c #2A3145",
"L  c #26314B",
"P  c #2B344C",
"I  c #2F394D",
"U  c #3A3447",
"Y  c #32344C",
"T  c #31394E",
"R  c #232D54",
"E  c #233254",
"W  c #2B3553",
"Q  c #2E3954",
"!  c #24345B",
"~  c #2B355B",
"^  c #26385D",
"/  c #2D3A5C",
"(  c #333B53",
")  c #383855",
"_  c #323D5B",
"`  c #0B1A65",
"'  c #0A1668",
"]  c #101C6E",
"[  c #0B1C77",
"{  c #17266F",
"}  c #162578",
"|  c #212C6D",
" . c #263A66",
".. c #2C3B64",
"X. c #2B3E6B",
"o. c #343D65",
"O. c #293977",
"+. c #422B43",
"@. c #442E4A",
"#. c #45334C",
"$. c #48354A",
"%. c #4E334F",
"&. c #483955",
"*. c #543B58",
"=. c #374055",
"-. c #3A4255",
";. c #36425C",
":. c #3A445D",
">. c #2F4466",
",. c #2D426D",
"<. c #354362",
"1. c #3A4662",
"2. c #3C4A65",
"3. c #33436D",
"4. c #39456C",
"5. c #3D4C6A",
"6. c #3F506D",
"7. c #2D4473",
"8. c #334573",
"9. c #354A76",
"0. c #3A4A75",
"q. c #32467A",
"w. c #344B7C",
"e. c #3A4D7B",
"r. c #3B517E",
"t. c #484548",
"y. c #524C4A",
"u. c #494756",
"i. c #57435A",
"p. c #585557",
"a. c #61485F",
"s. c #645C55",
"d. c #4B4464",
"f. c #424C65",
"g. c #424E6B",
"h. c #5B4462",
"j. c #564865",
"k. c #5D4B6A",
"l. c #43516D",
"z. c #4B546C",
"x. c #585667",
"c. c #5B5B65",
"v. c #5C5D6B",
"b. c #4C4C74",
"n. c #455473",
"m. c #4A5673",
"M. c #4C5975",
"N. c #45577A",
"B. c #4C5B7B",
"V. c #535A76",
"C. c #525E7C",
"Z. c #644C6A",
"A. c #65536C",
"S. c #654E73",
"D. c #655372",
"F. c #6A5779",
"G. c #725A7B",
"H. c #5D606C",
"J. c #5E6373",
"K. c #52607F",
"L. c #5F6578",
"P. c #63636B",
"I. c #68676B",
"U. c #716F6F",
"Y. c #636673",
"T. c #666974",
"R. c #6B6B73",
"E. c #616779",
"W. c #656B7D",
"Q. c #696E7B",
"!. c #6B717D",
"~. c #737378",
"^. c #142688",
"/. c #14278F",
"(. c #273A85",
"). c #2D448C",
"_. c #374D84",
"`. c #365184",
"'. c #3C5384",
"]. c #385388",
"[. c #3B558A",
"{. c #3E5A8D",
"}. c #3D5490",
"|. c #3D5A91",
" X c #425583",
".X c #495B87",
"XX c #435B8C",
"oX c #5C5982",
"OX c #435D92",
"+X c #455F99",
"@X c #6E5C81",
"#X c #715985",
"$X c #4D6086",
"%X c #4B628C",
"&X c #546383",
"*X c #52638A",
"=X c #586889",
"-X c #456194",
";X c #4A6395",
":X c #456299",
">X c #4A659B",
",X c #4D699B",
"<X c #556B93",
"1X c #5A6C94",
"2X c #566C99",
"3X c #5B7196",
"4X c #5C739C",
"5X c #646C82",
"6X c #696E87",
"7X c #796488",
"8X c #6B7384",
"9X c #6C7587",
"0X c #727583",
"qX c #73798C",
"wX c #787B89",
"eX c #6D6E98",
"rX c #7D6A94",
"tX c #687597",
"yX c #62749B",
"uX c #777D93",
"iX c #4D6BA2",
"pX c #536DA2",
"aX c #5C74A2",
"sX c #5C78A7",
"dX c #6177A4",
"fX c #6279A5",
"gX c #6C7DA4",
"hX c #647DAB",
"jX c #6A7DAA",
"kX c #637EB0",
"lX c #816D97",
"zX c #82719B",
"xX c #7E808E",
"cX c #7B8296",
"vX c #6680AE",
"bX c #6A82AE",
"nX c #788AAE",
"mX c #6B84B4",
"MX c #6A85B6",
"NX c #748AB7",
"BX c #758CBC",
"VX c #7B94C3",
"CX c #828493",
"ZX c #868A9A",
"AX c #838CA5",
"SX c #8C93AA",
"DX c #8F99B3",
"FX c #929DB7",
"GX c #95A0BD",
/* pixels */
"W.W.L.9XGXAX8X0XqXcXqXp.~.6X*X1.( :.( S f k ( V.D P u.( P G G _ ( T ( ( K 7 3 T ( P W W B.BXBXNXdXdXhXNXjX<XtX=X2._ _ M.V.m._ Q ",
"W.W.L.9XGXAX8X0XqXcXqXp.~.5X*X1.( ;.P j j D ( C.D P ;.( P D G f.( 3 $ + O . . O # 3 k P B.BXVXBXdXfXhXBXNXyXyX&X1._ _ m.&XB.;./ ",
"W.W.L.9XFXAX8X0XwXcX9Xp.~.5X&X1.( :.S f j D ( &XD K -.( P D P :.e . . . . . . . . . o s n.BXVXNXfXfXhXBXBXgXyX.Xg.1./ m.&XB.1._ ",
"5XW.L.qXFXcX8X0XwXuX9Xp.~.5XC.1.:.( j f j D _ C.D K -.( P D T e O u p p p u 1 O o o . + _ NXVXBXfXfXhXBXBXfXyX&Xm.g._ n.C.C.1._ ",
"5XW.L.qXFXcXQ.0XwXqX8Xp.~.5XB.1.:.P f f f D 2.M.F K =.( P K k & H Z.Z.F.G.G.Z.@.y 1 o . 4 dXBXBXhXfXjXBXNX4XyX*Xm.5.5.g.&XC.1._ ",
"W.W.L.qXFXcXQ.0X0XqX!.s.~.5XB.:.1.D j j f S f.M.D k -.( T J & p Z.Z.F.7XrXlXlX#Xk.&.2 o o N.BXBXhXfXjXNXNX4X4X&Xl.1.5.5.K.C.1._ ",
"W.W.L.qXFXcXW.0X0X9X!.s.~.8XC.:.:.f j f f S f.m.k k -.T ( k & $.Z.A.G.7XrXlXlXlXrX#X#.- o t MXBXhXdXhXNXNX4X1X&X1.;.1.g.B.B.2._ ",
"W.W.L.qXDXuXQ.0X0X9X!.s.~.qXC.:.:.f j f f D :.V.k h -.P =.k u *.A.D.G.rXrXlXzXzXlXrXF.i o < jXBXhXdXhXNXNXdX1X*X;./ 1.z.M.B.5.<.",
"W.W.E.uXDXuXQ.0X0X9X!.s.U.qXC.1.( f f f f S :.V.F h =.P :.k g l l U D.rXlXrXzXzXzXlXrX&.# 4 jXBXhXfXhXNXNXjXyX*X_ Q 1.z.m.B.5.1.",
"W.W.E.uXDXuXQ.0X0X9X!.s.U.qXC.2.P f f f f S ( V.K h ( P ( h g u 1 & l D.7X7XrXrXzXrX7X&.# : 2XBXhXaXfXNXMXvXyX&XQ Q 1.l.n.N.5.2.",
"W.W.L.uXSXqXT.0X0X8XQ.s.U.9XB.f.D f f f f k ( M.K h ( I Y p x a p *.y *.Z.H H d.F.rX7XH o 4 4XBXhXaXaXMXMXjXyXB.W Q ;.g.g.N.5.5.",
"W.W.L.uXSXqXT.0X8X8XQ.s.U.Q.B.f.S f j f f k ( M.P h -.P F l i.%.%.Z.*.G.i.p 1 i #.k.G.U . D fXBXkX4XaXMXMXhXyXN.W Q _ 5.g.N.5.5.",
"W.W.L.uXSXqXT.0X!.8XQ.s.U.E.M.f.f t j f f S :.M.P h -.K F +.a.Z.Z.h.G.7XF.*.H d.#.j.D.l o m.jXBXhX4X4XMXMXaXyXN.W Q _ 1.g.m.5.5.",
"E.W.L.uXSX9XT.0X!.8XQ.s.U.J.z.;.f f j f f j _ C.T j -.K F +.i.Z.i.*.7X7X7X@XS.Z.k.D.A.p l F.fXBXhX1X<XMXMX4X3Xm.W _ 5.5.5.n.5.2.",
"E.W.L.uXSX9XT.0XQ.8XQ.s.U.v.z.( f f f f e j ( V.( s ( F F +.%.%.a i.7X@XG.lXlX7X7X7Xj.H Z.j.jXBXhX<X<XvXMXaX3Xn.W W ;.M.5.n.5.1.",
"E.E.J.uXSX8XT.0X!.8XQ.s.U.v.z.P f e e w w e P l.I e T F H $.%.x y p #.*.h.F.lX7X7XG.j.h.G.F.jXBXhX<X*XhXMXdX4Xn.L W / M.f.n.5.<.",
"E.E.J.cXSX8XT.0X!.5XQ.s.U.x.z.S w 6 6 4 4 6 G <.P e P f h +.$.l H +.%.h.Z.*.D.G.F.D.k.G.7XeXjXNXfX<X%XhXMXfX1Xg.P W W n.g.n.5.1.",
"E.E.J.cXAXQ.T.!.Q.5XQ.s.U.x.f.f 6 6 6 : : 6 S / L t r 9 2 l +.y l *.h.S.S.h.Z.D.D.k.D.7XF.yXjXNXhX1X%XfXMXfX1X5.P W _ 5.g.n.g.1.",
"Y.Y.J.cXAXQ.Y.~.!.W.Q.s.I.z.:.w 6 6 < : : 6 S ~ _ ~ b < $ l $.a a $.@.l #.h.A.A.A.d.&.b.B.1XfXMXhX1X%XdXMXfX1X5.L P g.l.5.n.5.1.",
"Y.L.J.cXZXT.I.!.!.W.T.s.A.f.( 6 4 < < : : 6 N / n...o.9 # l #.@.%.*.%.+.+.*.k.j.j.) F _ tXyXdXMXjX<X%XdXfXaX1X2.L L n.tX1Xn.5.1.",
"Y.L.J.cXZXT.P.R.Q.E.R.p.u.) P 6 < < : : 6 f ~ 4.n.A N.V = i #.@.#.h.Z.Z.h.*.i.&.U j W _ tXeXtXgXjX1X%XaXsX2X1X2.L L B.nXbXN.5.1.",
"Y.J.H.cXCXT.P.R.T.Y.I.p.U T F 4 : : < t _ 4.0. X0.!  XR > 1 l #.&.j.Z.Z.k.j.&.H ) N G l.6X6XtXgXbX1X<XhXhX2X=X2.P P =XnXtXn.l.1.",
"J.J.H.cXCXT.P.R.T.Y.P.y.l Y S < : : f 5.N.3.X..Xe....X| c = 5 l U &.j.k.d.#.U ) f.3.N &XtXtXgXNXvX3X4XMXMXaX=X1.P Q &XgX&Xl.l.2.",
"J.J.v.CXCXI.P.R.T.Y.P.t.h Y S < w W 0. X X8.3.%X X...XO.' 8 o O 1 i H H F H &.) R 9.! N.dXbXMXMXvX3X4XMXhXaX*X:.P ( &X=X5.l.m.2.",
"Y.J.v.CXxXP.P.R.Y.Y.c.t.h P S C 4.N..X.X.X X X;X.X,. XO.} ] = X O % 1 i l U &.) M O.X.9.sXMXMXMXvX3X4XvXsX<X.X;.P P B.n.5.l.m.2.",
"J.H.v.CXwXP.P.T.P.Y.p.x h P _ e. X X.XXX.X'.r..X.Xe. XO.} /.M & O % & h $.u.u.F m } | q.;XhXBXMXvX3X4XhXpX.XN.;.P D _ <.n.g.m.2.",
"J.v.v.CXwXv.P.R.P.P.p.z h Y 4. XXXXXXX;X;X XX.9..XXXXX).[ /.| ) &.$.&.u.k.x.u.q c } m e.-X>XsXMXvX3X4XhX2X.XN._ P W Q <.l.f.m.1.",
"H.v.v.CXwXH.P.T.P.P.u.z l o.0. X.X;XXXOX;XXX8.8.8.'.XX_.` m 8 0 F U j.x.x.j.F = 8 } { -X>X>X>XsXvX3X3XfX4X<X.X_ P ( m.2.g.g.m.2.",
"H.v.v.CXwXc.P.R.P.J.t.z ) 4.e.w..X;XOX[.XX;X'.e. . .e.e.n c > 8 = @ e Y Y e @ 8 c m O.>X:X>XiXiXfX4X4XfXaXaX*X_ P G f.C.f.2.l.2.",
"H.v.v.CXwXc.P.U.H.v.U F _ 3.9.r.w.XX;XXX'.;XXX'.9.! 3.w.` ] c c 8 o o o o o = m c M XX>X:X>XiX:X,X3X4XhXfXfX*X_ P P L g.l.2.l.2.",
"v.v.v.CX0Xc.I.I.p.u.K Y o.0.e.'.'.w.-X;XXX-X;X'.XX..! e.` [ n n c @ o o @ @ 8 } n | pX,X-X:X:X|.;X3X4XvXhXfX$X_ P P L ( g.g.g.2.",
"c.c.v.CX0Xp.A.u.F j J _ 3.e.`.'.XX`.w.;XOXXX;XXXXXe.Z r.{ [ ' c { 8 @ @ @ = m /.] _.pX,XOX:X{.OX;X1X4XvXvXsX.X_ P P G ;.g.f.f.2.",
"c.c.v.CX0Xu.U i j j P o.3.e.'.XX{.XXw.'.>X-XOXXXXXXXA 3.(.' [ c } ' = @ @ 8 ^./.} >XiX>X|.{.`.:X-X;XaXsXfXaX.X_ P P G 1.g.2.f.2.",
"c.c.v.CXQ.H 6 q i S Q <.3.9. XXXOXXXXX7.;X;XXX{.'..X3. .}.[ [ n ' } 8 @ @ m /.^.(.pX,X|.].w.[.>XOX%XaXhXaXaX*XQ P P G 2.l.1.2.1.",
"x.p.c.CXY.7 2 6 t L _ 3.8.8.9.XX-X-X-X`.7.;X-X{.`.[. X .].} [ [ n ] n = = ] /.^.}.pX:X].w.w.;X-X{.XXaXMXhXaX*XQ K J G l.l.;.;.:.",
"p.p.c.xXx.2 2 2 t ~ o.4.8.e.w.7.'.XXOXOX7.w.-X:X{.w.XX8.w.O.[ ^.[ n ' 8 8 ^./.{ +X:X[.{.w.|.:XOX{.XXaXMXMXhX*XQ K D G V.f.1.2.1.",
"p.y.x.wX-.: : 2 G <./ 3.e.e.XX`. .9.OX-XXXX.[.>XOXq.XX'.q._.[ ^.[ ' n c c /.[ X.>X[._.'.].>X-X{.|.XXaXMXvXhX*XQ K J L m.1.2.2.1.",
"p.y.p.!.k : : q W 4.3. .9. X'.XX'. .w.XX-X'.7.XX-X`.e. Xq.].^.^.[ n n c ] ^.m XXXXw.`.w.-XOXXXXXOXOXaXMXvXsX*XQ K D P 2.;.2.2.:.",
"y.t.p.x.e $ : N ~ o.e.0.7.w.[.XXOX'. .q.XXXXq.X.XXXX9. Xw.[.(.^.m , R 8 ] ] Z e.7.e.w.XX-X{.XXOX{.OX,XMXvX4X*XW D D P ;.;.2.1.:.",
"y.t.u.) q $ 6 W / / 3. X'.w.'.XXOXOX'. .9.XXXXX.8..Xe.r.`.'.).^.v r V 0 ` m Z , V V 7.;X{.OX-X{.{.-X>XvXfX2X*XW D D W W :.2.2.;.",
"y.t.$.S 6 $ t ~ / ....9.'.'.'.XXOXOXXX'. .7.[.'. .0. X8.e.q.O.` 8 < r , c Z b @ 0 8 e.-XXX-X{.[.-X:X>XkXsX2X*XW D D P ( l.f.2.;.",
"t.t.U t 6 $ P <...o.3.8.9.'.[.XXOXOXOX{.'. .X.'.9.! b.oXV.b.o.F R q ; @ > b ; @ r 0 r.OXOX{.[.{.-X:X-XsXfXaX=XW D D P z.f.2.2.;.",
"t.t.h q 2 5 _ 4.3.3.8.9.`.r.w.`.XXOXOX|.[.w.X.X.9._ D.7XG.D.A.D.F.) t 9 ; r @ @ : 0 w.XX{.`.{.-X-X:X+XpXfXfX=XP S k P V.;.:.:.;.",
"t.z 7 6 : j _ ~ X.8.9.e.`.q.X. . .w.'.[.[.'.e.X.~ &.G.7XF.#.p a i.F.F 0 9 r ; w 4 , b B ,.[.{.-X-X:X+X,XsXfX*XP k f P :.Q ;.;.;.",
"t.z & 2 : k _ / 3.0.8.9.`.'.'.9.7.w.[.OX[._.'.~ F $.D.@XF.k.#.p y &.H G r N f : ; , , @ Z XX{.-XOXOXOX>XsX4X.XL k f D I Q ( ( ;.",
"$.g $ < $ 5 f / 3.3.8.9.e.e.9.'.XXOXOX'._.'.~ i l #.F.@XD.Z.A.k.*.@.H G q t e o o , ; @ R OX|.|.|.|.OX-XaX2XB.L D P T :.Q P ( ( ",
"z 7 # : $ 5 S / X.3.,. .!  .8.'.XXXX_.q. XX.t H l +.A.@XF.k.h.h.D.D.H , , 4 w o o , = @ E OX{.|.|.|.|.OX1X<X.XD K f.z.f.P P I ( ",
"z % O : # 7 P / 3.3.! ! Z X.8.`.XXw.O.'.e.b i l l l h.D.F.D.D.h.$.i.H = r ; 3 6 @ , @ @ A {.{.|.|.|.|.{.%X<XB.D K f.z.V.( P P ( ",
"* X O $ + s S ~ 0.X.X.! R 3.,.9.e. .8.XX.., i p l l $.i.h.Z.k.h.H y j 9 , @ o # @ w @ @ A {.[.}.|.{.|.[.%X1XB.S s P z.V.:.K P ( ",
"% X O $ $ s N / ......V ~ 3...3.3.A e.r.r = 7 u p u u p u l +.&.h o < 9 8 r N w o o @ @ A '.[.[.[.[.[.[..X<XN.f s s ( f.:.K K T ",
"& + & & 5 t G E R / R r ..3. .X.! ! r...@ @ 5 & 7 u & . . X O & O o @ > 8 ! 9.! o o ; = ! '.].].].].].'.'.*XN.f s s K u.u.P P T ",
"h 5 & $ 5 S G B E / b 0 ..3.....b  .e.b o . o . X X . . o o o . . . o @ < ~ ..r . @ ; = ! `.`.[.].].].].r.%Xn.f s s k T T P T I ",
"7 + X X 7 G N N W G , r / X. .! v X. ., . . . .       . = 9 @ o . . . o 5 Y j # o @ ; @ w C ! ,.q.9.w.`.e.$Xn.f s s k k D I T I ",
"+ X X X e G r G G d ; r / X...V v X.V @ . . . . . .   . 4 S @ .     X o 1 #.l . o @ ; @ 4 w 4 4 r B ! ,.9.N.g.f s s k k Y T P I ",
"X X X O f f N G C 9 ; N ~ ....b b ..9 o @ > 8 > = o . . # $ . .     + O & H p . o = ; @ B >./ E C B B A ..N.5.f s s k P -.P P I ",
"X O X + e t S S N , ; N ~ ..~ 0 V R @ @ = > > = @ o o # $ . . .     % 2 p $.7 . o t w o B ,.,.,.,.,... .,.N.n.P J J P ( T I I I ",
"+ + X O 5 r N S N ; ; N W / R 9 V r .   . .   . . o o 3 N w $ .     O 7 h &.p O o 6 : o B 7.7.7.7.7.7.7.3.N.B.5.5.l.l.N.N.M.n.5.",
"+ .   . $ 6 f G N = ; G E ~ G 9 N 3 .         . o @ @ 4 G G d o     X % u U U H q c c 8 0 E 8.7.7.7.7.,.3.B.B.5.5.6.l.N.B.B.N.n.",
"      . + 6 f S w @ < N G E V 9 N #     .   . + 3 4 4 f L L r o . . . X & g l l t ` ' ` V 9 ^ ,.,.,.,...5.N.N.5.1.5.6.n.N.B.n.l.",
"      . O 6 f N < @ < N S R N 9 r o .     . o 6 N G L D L G , o . . . X % * u u 6 ` ` ` Z 4 w / ......^ 4.6.N.2.;.2.1.l.N.N.l.l.",
"    . . O 6 f f ; @ 4 N C S d 0 r . . .   . @ r N G G C G r = @ o o . . X X O X , m ` n B r ; C .. . .! ;.6.6.;.=.;.( 1.6.l.2.2.",
"X . . . X 5 t r = @ 4 N N S r 0 4 o o . . . # r B G C C b > = = = @ # + . . .   , m m 8 r N # 9 ! ^ ! E / 5.5.;.Q ;.Q ;.5.2.1.:.",
"X . . . . 5 e q = @ q N N N r w : o @ o . o ; r N C C N 0 > > > = = ; 3 o @ o . 0 m 8 o d C 4 @ N ! E E E 2.5.;.Q :.( ;.2.1.:.:.",
". X . .   $ w 4 @ @ w f N N w r ; = > @ o o ; w N B N N 0 > > > > > , : @ 8 > = 8 ; .   f G N @ 9 E E R E ;.2.;.Q ;.;.;.2.1.:.:."
};
