/* XPM */
static char *d9bd4048123148d5bde886f8da39ed25uNQHlk3ziruvJUnj[] = {
/* columns rows colors chars-per-pixel */
"64 64 37 1 ",
"  c #008080",
". c gray22",
"X c gray33",
"o c #484848",
"O c #EC0000",
"+ c #D40000",
"@ c #A40000",
"# c #E00000",
"$ c #C80000",
"% c #BC0000",
"& c #B00000",
"* c #880000",
"= c #640000",
"- c #2C2C2C",
"; c #7C0000",
": c #980000",
"> c #700000",
", c #580000",
"< c #400000",
"1 c #4C0000",
"2 c #706C00",
"3 c #9C9C00",
"4 c #CCC400",
"5 c #B4AC00",
"6 c #848400",
"7 c #E4D800",
"8 c #585400",
"9 c #FCF400",
"0 c #202020",
"q c gray36",
"w c gray25",
"e c #404000",
"r c black",
"t c #646464",
"y c gray19",
"u c #343434",
"i c white",
/* pixels */
"                                                                ",
"................................................................",
"X.XoooooXooooooXo.oooooooXXXXXXoooooooooXXXXXXXoooo...ooXXooooo.",
".OO+++++++++@ooXOO++++++++++++++++++@o.XOOOO######+++++$$$$%%%@o",
"oO$&&+*@+*$@=-oXO%*%*%*%;%:%:%;%;%$@>-o.+@$&$&&$>$;$&$*&@;$:$@;-",
"o+@;@*@:>@*>=-oX+%**@*>@@>:@@>:@>@:>,-oX+@@;=@*>*@;*@@*@;*@,@>=-",
"o+;@@>:@@>@,<-oX+*%@*@>@*@>@>*;@>:;>,-oo+>@=*@=@>@;@*@=@:;@;@>1-",
"o$@;*:;@>*@><-oX%%*@**:@>234444535444442%>@;@*=@>>@@>@*@@;@,@*1-",
"o%;@@>@:>:>,<-oo%$*@>@>3326544537777777533@=*@;*>*;@*@=@;*@;@><-",
"o%@>*,>;,>*><-.X::>>122332225564444442823322>>1*1>,*1>1*=1>*>*<-",
"o;===<<<<<<<<-.o;==233288676256555579476882332=====,,,,,,,,,<<<-",
"oo--------000-.Xo-86337777746233333934437723368-----00000-------",
"X....oooo.....o.o8888277996632666668366995728888qXXoow.wX.XoooX.",
"O+++%%%%%%%%%%%@833277746624e222222844266437723381>%@owXOO++++++",
"&**&:;&;:*&=&*@3383879963352e88888838253369978383311>.o.O$;&*&*&",
"*@*@;**=@*=*@@83388856622448eeeeeee33844226658883381<.oX$&;@*;@:",
">@@*:=@;**:=@888864686368888eeeeeee66888863686468888<0wo$;@@@;@;",
"@**@*;;*;@:=338864778244832ee0002--eee33844287646883300o$&;@;@:;",
">@=@>*;:=@=*3387776e28888200000265----6888882e767783300o&;@@,@;*",
">&=>1;>:>:>eee657673233280000026669-----82332377676eeer0&@;>,>:>",
"<11111111118e757636e8832000002666653-.---3388e637677e8r0@=<=<<=<",
"---0---0003364376572388000002666668--..---8832774634633r0000----",
"XXo..oX.X.336277634823000002666668--XXX.---328433462633r00.wXooo",
"XOO+++++++28777652838000002666668--XX99X.---838277677821,>%%%%@o",
"XO*&%;%;%62875765783200002666668--.X9559X.--33877473782611=@,@<-",
".O&*@:@;>3285476548800002666668--.X956659..--884557658231<1>;><-",
"o%=@@>*,@33882255e220000826666658.95666659.--22e55228833<<11,><-",
"o%&*@1@,>368e222e338000-.826666599566666659.-833e222e86311<1>><-",
"X%>=@1*;@388877e3330023-..826666556668666659--333e778883<<11>><-",
"o$@=>>>,>688273888802669...8266666668-8666659-88885428861<11>><-",
"o@:======8255767722236659...82666668---86666682277437728<<<1>,<-",
"oo.------8247765383-866659...36666669-.-86668-3835433428rrr000--",
"XXXXXoo.o8e27766883--866659.9666666639..-868--38837632e80000ooX.",
"%%%%%%%%%38e23677228--86665956668666639..-8..22277762e831,=>%%%%",
"@&@&:$&&$33255765832---866656668-8666639....o3385576723311<1>@>@",
"@;*@:@;@*88247466888----8666668---3666633.ooX88865464288<111>:*>",
"*;@:;@;:@>8e277676868----86668---9666668--.X266677632e8<1<11>;@>",
"@*;@:@:;*>28e23765786-----868---9366668--..o68755762e82<1<<1>;>*",
"@*;@;@;:@>568577673832-.---8---9366668--.oX238374677865<<<11>*@>",
">>*:>>:>>>62845766ee822..-----9366668--.oX233ee66654826<1<1>;@@>",
"<<1111111<<8e27322822833o.---3366668--.oX23882822372e8<<<<1,,,,<",
"-----------88e22e73277882ooo.-86668--.oo28844237e22e88rrr0000---",
"XoX.o..oo...82888277742285XXo--868--..238224747288828rr0000.X.X.",
".O+++++++%%>13368627765783243---8--6544383564626863311,,>>%%%%@o",
"X+@**@=@@;:>1236823677774662444464444468457466328632<1111;:>*@<-",
"o+@=@*=@*:;@=128824327773472354677777635244623428821<1111>:@=*<-",
"o+*=@=*>=@=@>11828823667777625644444465746653288281<1<<1;@>*=@<-",
".+@*@*=@*;:@;,11256e4626677325655555564465234e65211<<1<1,;>@*@<-",
"X+@=*@=@=@=@=>111288eee3566626333333326653eee88211<<1<1;,;:*=><-",
".$@=@=*>*:;@**>1111836e4438626333333388344e6381<<<1<11>,;:>@=@<-",
"X@=========111111111238e88888666666668288e832<<<<<<<<<1111111<<-",
".o----------...-0rrrrr822268822222222862228rrrrrr00-0--000------",
"X.X.XoXooooXttXo..-00rrr66688888888888666rrrrr00-0---..y00y.ooXo",
"+++++%%%%%%%%%%%%@o.-=,,1<<<eeeeeeeee<<<<<1111<00-O+++++%%%%%%%%",
";@,@@=:=@;$;@=@;@<-o.+111111<<<<<<<<<<<<<<<<<<<0--+@=*@,@>@>@=@>",
"@;;@;@=:;=@,;=*=*<-oo+;>11111<1<1<<<1<1<<<1<<1<0--+=@,@>@>*@>@*1",
"@;,;@=:=;@;,@*=:;<-ow+;;>>=11<1<<1<<1<<<1<<<11<0-.+=@>>@@*>*>=>*",
";:,:==@=@;@,;>=@=<-ow+@1>@=>1>1<111<1<11<11111<-.o+@=,@*>>@>@=>@",
"=@;@=@=*@=@;,*@;*<-ow+1@@=@;>*,;1>1>=1,=1>,;>=<-oo+=@*@>@*>>,@>@",
"=@;;=::=:=;,@=@=:<-oo+1@>@=;;*1:=11=;,,*1@,@,*<-.o+=@,>,@>@>,=@1",
";:,@==*=;;@,@=>*;<-oX$@1>@=@1*=@1;>=@=;@=*>*=*<-.o$==,@,@>@>@=@>",
"1111111111111111<<-oo@<<<<<111111111111111111<<0oX@<<11111111111",
"-------------------oXo.uu--------------00000-000.oo------00000--",
".X.X...oooooXX.ooooXXXXXoooXoooXoo.ooow..w..wow.wXoo.Xoooow.wooo"
};
