/* XPM */
static char *_efdaaabf5ab4c8991a7165d9ce7c6ed67ZRIRCmaoX43drD[] = {
/* columns rows colors chars-per-pixel */
"64 64 256 2 ",
"   c black",
".  c #010101",
"X  c #020202",
"o  c gray1",
"O  c #040404",
"+  c gray2",
"@  c #060606",
"#  c #070707",
"$  c gray3",
"%  c #090909",
"&  c gray4",
"*  c #0B0B0B",
"=  c #0C0C0C",
"-  c gray5",
";  c #0E0E0E",
":  c gray6",
">  c #101010",
",  c #111111",
"<  c gray7",
"1  c #131313",
"2  c gray8",
"3  c #151515",
"4  c #161616",
"5  c gray9",
"6  c #181818",
"7  c #191919",
"8  c gray10",
"9  c #1B1B1B",
"0  c gray11",
"q  c #1D1D1D",
"w  c #1E1E1E",
"e  c gray12",
"r  c #202020",
"t  c gray13",
"y  c #222222",
"u  c #232323",
"i  c gray14",
"p  c #252525",
"a  c gray15",
"s  c #272727",
"d  c #282828",
"f  c gray16",
"g  c #2A2A2A",
"h  c gray17",
"j  c #2C2C2C",
"k  c #2D2D2D",
"l  c gray18",
"z  c #2F2F2F",
"x  c gray19",
"c  c #313131",
"v  c #323232",
"b  c gray20",
"n  c #343434",
"m  c #353535",
"M  c gray21",
"N  c #373737",
"B  c gray22",
"V  c #393939",
"C  c #3A3A3A",
"Z  c gray23",
"A  c #3C3C3C",
"S  c gray24",
"D  c #3E3E3E",
"F  c #3F3F3F",
"G  c gray25",
"H  c #414141",
"J  c gray26",
"K  c #434343",
"L  c #444444",
"P  c gray27",
"I  c #464646",
"U  c gray28",
"Y  c #484848",
"T  c #494949",
"R  c gray29",
"E  c #4B4B4B",
"W  c #4C4C4C",
"Q  c gray30",
"!  c #4E4E4E",
"~  c gray31",
"^  c #505050",
"/  c #515151",
"(  c gray32",
")  c #535353",
"_  c gray33",
"`  c #555555",
"'  c #565656",
"]  c gray34",
"[  c #585858",
"{  c gray35",
"}  c #5A5A5A",
"|  c #5B5B5B",
" . c gray36",
".. c #5D5D5D",
"X. c gray37",
"o. c #5F5F5F",
"O. c #606060",
"+. c gray38",
"@. c #626262",
"#. c gray39",
"$. c #646464",
"%. c #656565",
"&. c gray40",
"*. c #676767",
"=. c #686868",
"-. c DimGray",
";. c #6A6A6A",
":. c gray42",
">. c #6C6C6C",
",. c #6D6D6D",
"<. c gray43",
"1. c #6F6F6F",
"2. c gray44",
"3. c #717171",
"4. c #727272",
"5. c gray45",
"6. c #747474",
"7. c gray46",
"8. c #767676",
"9. c #777777",
"0. c gray47",
"q. c #797979",
"w. c gray48",
"e. c #7B7B7B",
"r. c #7C7C7C",
"t. c gray49",
"y. c #7E7E7E",
"u. c gray50",
"i. c #808080",
"p. c #818181",
"a. c gray51",
"s. c #838383",
"d. c #848484",
"f. c gray52",
"g. c #868686",
"h. c gray53",
"j. c #888888",
"k. c #898989",
"l. c gray54",
"z. c #8B8B8B",
"x. c gray55",
"c. c #8D8D8D",
"v. c #8E8E8E",
"b. c gray56",
"n. c #909090",
"m. c gray57",
"M. c #929292",
"N. c #939393",
"B. c gray58",
"V. c #959595",
"C. c gray59",
"Z. c #979797",
"A. c #989898",
"S. c gray60",
"D. c #9A9A9A",
"F. c #9B9B9B",
"G. c gray61",
"H. c #9D9D9D",
"J. c gray62",
"K. c #9F9F9F",
"L. c #A0A0A0",
"P. c gray63",
"I. c #A2A2A2",
"U. c gray64",
"Y. c #A4A4A4",
"T. c #A5A5A5",
"R. c gray65",
"E. c #A7A7A7",
"W. c gray66",
"Q. c #A9A9A9",
"!. c #AAAAAA",
"~. c gray67",
"^. c #ACACAC",
"/. c gray68",
"(. c #AEAEAE",
"). c #AFAFAF",
"_. c gray69",
"`. c #B1B1B1",
"'. c #B2B2B2",
"]. c gray70",
"[. c #B4B4B4",
"{. c gray71",
"}. c #B6B6B6",
"|. c #B7B7B7",
" X c gray72",
".X c #B9B9B9",
"XX c gray73",
"oX c #BBBBBB",
"OX c #BCBCBC",
"+X c gray74",
"@X c gray",
"#X c gray75",
"$X c #C0C0C0",
"%X c #C1C1C1",
"&X c gray76",
"*X c #C3C3C3",
"=X c gray77",
"-X c #C5C5C5",
";X c #C6C6C6",
":X c gray78",
">X c #C8C8C8",
",X c gray79",
"<X c #CACACA",
"1X c #CBCBCB",
"2X c gray80",
"3X c #CDCDCD",
"4X c #CECECE",
"5X c gray81",
"6X c #D0D0D0",
"7X c gray82",
"8X c #D2D2D2",
"9X c LightGray",
"0X c gray83",
"qX c #D5D5D5",
"wX c gray84",
"eX c #D7D7D7",
"rX c #D8D8D8",
"tX c gray85",
"yX c #DADADA",
"uX c gray86",
"iX c gainsboro",
"pX c #DDDDDD",
"aX c gray87",
"sX c #DFDFDF",
"dX c gray88",
"fX c #E1E1E1",
"gX c #E2E2E2",
"hX c gray89",
"jX c #E4E4E4",
"kX c gray90",
"lX c #E6E6E6",
"zX c #E7E7E7",
"xX c gray91",
"cX c #E9E9E9",
"vX c #EAEAEA",
"bX c gray92",
"nX c #ECECEC",
"mX c gray93",
"MX c #EEEEEE",
"NX c #EFEFEF",
"BX c gray94",
"VX c #F1F1F1",
"CX c gray95",
"ZX c #F3F3F3",
"AX c #F4F4F4",
"SX c gray96",
"DX c #F6F6F6",
"FX c gray97",
"GX c #F8F8F8",
"HX c #F9F9F9",
"JX c gray98",
"KX c #FBFBFB",
"LX c gray99",
"PX c #FDFDFD",
"IX c #FEFEFE",
"UX c white",
/* pixels */
"mXMXVXZXZXCXBXNXBXBXVXCXCXCXCXCXLXnXbXDXSXMXbXbXcXnXvXgXyX4X}.K.K.P.-X+X1XuXhXjXhXaXpXjXvXxXhXgXgXhXjXkXlXxXcXcXcXbXNXZXDXHXLXIX",
"BXCXAXDXFXDXAXZXSXSXDXFXFXFXFXDXbXIXHXVXBXDXvXcXiXoXD.k.w.#.^ E [ / #.[ >.a.I.*XkXjXbXkXwXdXnXfXxXxXcXvXbXbXnXnXmXNXCXSXGXKXPXIX",
"DXFXHXJXKXJXGXFXGXGXHXJXJXJXJXJXCXUXZXDXGXSX&X!.r.' K )  ./ ^ ..! ` o.W  .{ | ;.F.#XgXMXmXnXNXAXNXNXNXNXBXBXVXVXZXAXDXGXKXPXPXIX",
"HXJXKXLXLXKXJXHXFXGXGXHXHXHXHXHXUXHXBXUXxX$Xu.%.>.} ' %.,.%.#.-.#.8.8...6.,.+...Y <.g._.bXmXuXnXBXBXVXCXZXAXAXSXGXGXHXKXPXIXIXIX",
"HXHXJXKXKXJXHXGXDXDXFXGXGXGXGXGXIXAXIXHXU.4.-.1.>.8.w.8.0.a.k.j.2.i.p.w.M.a.a.x.r.@.R %./.kXCXMXnXmXMXBXCXZXSXSXHXGXHXKXIXUXUXIX",
"FXGXGXGXGXFXDXDXDXDXFXGXGXGXGXGXHXSXAXoX;.+.n.P.s.A.J.v.j.M.N.j.m.z.k.B.P.u.M.{.W.6.{ U R K.nXjXzXxXcXbXMXBXVXCXFXDXDXHXIXUXUXIX",
"DXDXDXSXSXSXAXAXAXSXSXDXFXDXDXDXDXZX9Xp.8.k.].'.e.f.b.B.A.D.C.v.L.s.>.6.h.w.J.[.U.G.F.e.~ ,.OXzXhXjXlXzXcXbXnXmXCXVXCXDXPXUXUXIX",
"SXSXSXAXAXZXZXZXCXCXZXAXAXAXAXZXnXNX&X3.H.E.'.E.y.<.>.t.g.y.0.e.z.0.%.,.z.x.M.;.h.!.Q.A.p.' 2.9XgXhXjXkXlXxXcXcXNXMXNXAXLXUXUXUX",
"CXCXCXVXBXBXNXNXVXCXAXSXAXCXNXmXnXfXN.7.G.l.A.F.g.>.9.z.p.0.6.#.=... .,.r.0.>.%.9.1.G.`.z.5.| I.fXaXhXaXdXzXkXmXxXvXnXBXSXHXPXUX",
"CXVXVXBXBXNXMXMXMXNXVXCXCXBXMXmXSX>X>.6.p.<.u.~.(.S.H.L.g.8.,.| _ ^ ( +.0.d.t.2.` ` $.g.T.E.*.:.:XtXyXeXiXsXgXxXzXxXbXNXAXGXLXIX",
"VXVXBXBXNXMXMXMXnXmXNXBXNXMXnXbXxX-X%.<.1.S.|.tXyX7XqX4X].R.I.N.l.k.j.b.R..X[.I.j.2.) a.+X!.o.Q E.wX8X7XyXqXaXfXjXlXcXmXCXFXKXPX",
"CXVXVXBXBXNXMXMXmXMXMXMXmXbXcXxXhX&X=.X.;.OXiXrXuXaXkXdX8X9XwX2X,X;X&X-X8XpXyX5X=XT.4.d.F.u.=.&.x.0X4X5XuX5XpXpXgXjXzXbXVXDXJXPX",
"CXCXVXVXBXNXNXNXNXNXMXmXbXcXzXkXcXS.( o.n.*XsXtXuXdXjXsXyXfXhXyXiXqX0XyXsXdXgXzXfX9XS.3...] <.o.0.:X,X3XtX5XpXpXsXfXjXcXNXAXHXKX",
"VXVXVXBXNXNXMXMXNXMXmXbXcXzXkXjXvXu.E &.XX8XlXfXzXvXxXgXfXjXfXuXpXeXrXaXpXtXdXmXFXhXW.8.&.{ =.[ :._.%X>X8X5XyXuXyXiXdXkXbXVXDXGX",
"NXNXMXMXmXnXnXnXbXvXcXxXzXlXjXjXcXa./ %.@X6XwX5XfXjXfXpXsXpXtXyXrXeXwXqX0XqXyXfXNXkX/.i.B.0.-.3.,.J.@X-X<X4X8XqX0XwXyXdXlXnXVXAX",
"mXmXmXnXbXbXvXvXzXzXlXlXkXkXjXjXaX7.I ,.:X0XeXxXpXgXdXsXfXuXtXfXrXpXuX0XwXdXkXhXjXUX,X8.Z.u.] @.8.A.#X-X;X3X1X4X7X9XeXiXhXcXMXVX",
"nXvXcXcXvXbXcXxXhXjXjXkXjXhXfXdXuX%.! b.7X9XsXiXtXgXjXqX0XiXyXfXuXyXuXqXgXqXlXxXGXlXbX`.k.V.V.} O.I.oX.X@X*X1X,X3X5X9XtXdXzXmXVX",
"cXxXzXzXxXxXzXkXgXgXfXdXsXaXpXiXjX;.~ K.&X&X3XuXzXzXkXsXjXvXfXyX8X1X&X%X3X;XeXbXAXVXbX7XoXW.K.} W B.{..X@X%X:X-X,X1X5XqXiXjXvXmX",
"lXjXhXhXjXjXhXgXdXsXpXyXtXrXrXrX0X$.{ [.F.3.&.q.F./.>XwX9XqXpXpX^.m.^ T @.{ :.<XVXLXlXiX2XG.J.5.I v.).[..XOX=X=X-X:X1X7XrXdXlXvX",
"hXfXdXdXfXfXdXsXsXiXtXqX9X8X9X9X7X-...A.d.t.k.j.P Q r.%XfXiXXXs.L U H ..;.@.( g.aXSXvXrXOX0.i.c.} C.~.~.`.}.%X*X&X=X>X5XwXaXjXxX",
"dXsXpXaXsXsXaXiXpXyXwX7X5X4X5X5X9X5.:.v.J.(.%XD.F.8.e.XXtXqX{.:.y.g.E.'.V.~.G.j.,XkXFXsX#X2.X.k.<.K.W.R.(.[.OXOX%X*X:X3XqXpXjXzX",
"pXuXyXyXiXiXuXtXyXeX9X5X2X1X1X2X9X,.t.[.Q.@._ L X.P #.XXwX8X-Xu.#.o.' T } e.g.oX<XsXGXjX6Xs.{ r.6.K.R.T.).'.{.'.@X$X-X1X9XuXgXkX",
"tXrXeXeXrXrXeXwXqX9X6X2X<X>X>X>X9X9.u.OXH.Q K | a.) X._.:X2XqXV.K L ^ ! 3.-.{ V.;XaXcXlXaXb.&.:.8.P.R.Y.^./._.(..XOX$X:X5XeXaXgX",
"eXqX0X0XqXwX0X9X8X7X4X1X>X;X;X-X@Xm.g._./.oX|.).t.&.s.1X*X%XMX5X,.} Q.T.n./.oXB.(.rXsXMXxXv.:.` t.R.Q.I.E.E.(.`.}. X+X*X1X0XyXaX",
"9XqXwXqX7X3X3X3X5X>X=X-X;X=X&X*XH.*.Z.oXOX'.].^.d.K.).=X=X&XxXvX$X2.6.S.N.Z.).-X5X0XhXbXzXI.M.J.~.~.T.J.L.Q./.^.|.OX$X=X;X3XwXpX",
"9X0XqX0X6X3X2X2X1X;X*X&X$X@X%X-Xu.E D.$X=XOXQ.).R. X$X+X[.&XjXnX9X^.J.J.Y./.OXiXiXzXVXcXbX1XXXW.;.l.W.~.K.G.E.[.}.XX#X&X-X2XqXiX",
"8X9X0X8X5X1X<X,X-X&X$X+X.X X@X;X6.L L.#X=X*XW. X>X;X%X&X X=XpXxX<X`.+X2X2X1X<XeXsXjXnXpXpXrX<XW.3.f.D.L.K.I.!._.[.|.OX$X=X2XqXuX",
"8X8X8X6X3X<X:X;X%X+XoXXX|.}.oX&Xw.[ H.].$X,X$X>X$XOXQ.4X<X*XiXdX%X6.m.1X:X7XzXkXCXxXVXcXdXaX,XE.J.C.b.B.I./.(.!.].}.XX#X=X2X0XyX",
"8X7X5X4X1X>X=X&X@X.X}. X.X.X.XoX3.=.n.!.&X4XtX-Xb.OX/.wX'.F.4X0X6X5.t.|.;XtXzXsXmXpXjXaXwXwXU.1.G.A.C.D.P.E.!.^.'.{. X+X=X2X0XtX",
"7X5X3X2X,X;X&X#X+X}.].}..X X|.|.-.1.l.Q.-X;X3XR.G.}.s.J.l.z.P.e.b.:. .7.[.sXfXcXBXcXvXaXpXzXC./ F.C.N.V.S.J.T.^.'.].}.oX&X<X7XwX",
"7X4X2X<X>X-X$XOXoX}.'.].].'.[.|.8.,.z.U.+X|.).C.{.7X+X Xq.0.m.R.|._.k.-.M.:XeXMXhXdXsX6X2XwXx.-.I.N.g.h.m.D.I.E._.`.]. X#X:X3X7X",
"7X4X1X,X:X=X#XoX.X}.].`.(.^.'.XXd.%.j.S.'.`.I.Y.|.V.f.M.,.q.3.G.c.b.m.0.t.'.rXlXvXhXhXyX1X,XS.).v.h.f.k.v.N.G.T.(.)._.{.OX=X<X4X",
"4X3X<X;X*X$X@X+X|.|.[._./.^._.].v.-.q.I.W.~.Q.m.6.<.p.q.Q ! 7.d.i.w.4.j.J.(.5XdXMX6XzX4X3X;X}. Xv.g.u.i.f.c.S.U.^.).`.`.|.&X<X3X",
"2X1X>X-X&X#X+XOXXX.X}.'.(./._.'.J.,.-.M.^.W.g.] $.;.r.2.R E 2.s.5.p.r.u.v.E.;X,XsX0XqX3X=X/.@XOXs.y.r.p.j.m.G.T.~.).`.'.|.&X<X3X",
",X:X-X*X$X+XoXXX.X X{.`.(./.(.).~.d.4.z.Y.B.#.C ( ] ' I M n M m ~ } ` { -.z.+X9X2XwX%X:X^.w.J.C.0.8.q.a.l.m.D.I.Q.(.`.'. X%X<X3X",
"-X=X&X$X+XoX.X|.[.].`.(.^.~.~.~._.R.M.h.t.} M k 7 p e 7 f M m n M c b ~ { ..n.$X%X7X+X-XS.| 5.-.4.4.8.y.f.z.N.D.T.~.`.].|.%X,X2X",
"%X$X#X@XOX.X|.{._.).(./.^.~.!.Q.U.T.v.1.) g ; 2 7 ( t.M.K.m.8.,.W b t z s q ) n.%X>X*X&XM.$.$.$.>.,.3.q.u.d.c.C.P.Q._.'.}.#X:X1X",
"@X@X@X+XoX X}.[.`.).(.(.(.^.!.E._./.Z.f.p.,.' _ g.F.D.l.a.6.-.<.y.0.&.+.] | l.'.=X%X$X'.p.;.X.*.$.&.>.6.e.p.x.C.G.T.(.`.{.+X-X,X",
"OXOXOXOXXX X{.[.'._.(.(./.!.R.I.J.D.x.g.c.v.g.s.I.H.l.6.&.{ ) ] q.D./.|.]._.OXXX&X=X.XT.1.+.{ X.o.@.;.6.e.p.z.V.A.U.^._.[.oX*X>X",
"oXoXOXOXXX X{.].'.)./.^.!.E.P.G.U.Y.G.x.i.p.l.M.S.K.P.C.p.3.7.s.G.XX>X5X>X@X=X+X+X1X XW.1.O.O...X.#.>.8.r.p.k.M.C.P.~.).].XX&X:X",
"@X+XXX X}.{.{.{.}.`.!.R.E.W.P.S.F.J.P.D.e.t.H.C.P._.[.}.OX[.'.=X1X9XwX7X1X:X&XOX#X%X XS.O.@.[ &.$.=.<.6.q.u.j.v.D.L.W.).{.OX*X>X",
"+XOX.X}.].'.`.`./.).`.).W.K.F.D.^.Z./.N.w.k.l.U.E.).{.XX X^.E._.3XqXrX9X2X:X&X+X_.#X.Xm.7.| o.] o.$.;.2.8.t.g.x.A.K.E.(.]. X$X;X",
"#X+XXX}.].`._.).`./.~.Q.I.D.G.U.A.R.W.] D 7.p.l.C.S.E.~.S.j.k.n.XX=X3X2X;X$XoX X X+X#X>.2...#... .+.-.1.8.t.g.c.C.J.W./._.{.+X=X",
"%X#XOX X{.'.`.`. X~.U.Y.I.D.Z.D.n.].t.q + G 9.5.r.t.c.x.>. .*.1.t.b.T.].|.}.}.}.=XoXOXP ` *.X.#...#.:.5.q.p.k.n.Z.K.Q.(.).].OX=X",
"%X#XOX X}.[.].].'./.~.(.!.K.Z.C.(.l.F < % 9 ~ 5.o.[  .' S m C n D { i.K.).{..X@X@X$XJ.A I @.O.{ O.&.1.8.r.a.l.n.A.K.W./.).[.OX&X",
"+XoX.X|.}.{.{.{.`.{.|.]./.Q.^._.F.A 5 & < w r ` r.8.<.*.#.#.` Z V ] s.E.}. XOX%X#X%X>.S F W <. .#.-.3.9.e.p.h.x.Z.G.Y.!.(.].XX@X",
"XX.X X X X XXXXX XoX X'._.`.W.G.U - : * : i 9 h *.w.y.0.p.s.-.E Q -.N.'.oX|. X@X+Xn.W M Z D | $.*.,.6.q.r.u.d.k.N.C.G.U.~.`.}. X",
"XXXXXXXXoX+X#X$XoXoX X|.OX_.a./ & $ 2 s 9 9 c a x $.t.q.p.a.-.) ! -.m._.|.].[.OX!.U P x A F k } :.3.9.e.t.i.d.j.n.m.C.J.E.).'.].",
"$X&X%X+X+X%X&X%XXX,X'.V.$.` +.g - : 5 s < y f f b l O.m.z.p.q...Y *.V.~.@XT.).{.R V J N A c j l V ~ @.4.a.h.f.g.m.C.F.K.Y.!.).`.",
"@X.X.X*X5X6X*X{.D.,.m V P ! W & - 5 , 6 v i 9 n c y u [ B.m.:.| _ ( M.K.!..XU.&.N B R A B A v u f B C j j R -.7.j.V.I.I.H.K.^. X",
"7X<X:X>X@XY.l.e.q.Y i Y @.{ I ; 4 2 i 7 p y b h a d d f R g.m.%.-.] <.)..Xb.t.G F N S l q l b x v G T V b ` 1.%.#.1.d.F.^.[.{.].",
"-X@X(.z...I  .p.H.6.! W M 1 %   6 3 j d t z ^ Y v y k c s I 8.a.&._ -.e.E.K.! B P v K ! B b z N l z H ~ o.h.C.9.T [ &.#.| $.h.Q.",
"p.@.I F G J Y ) I k 2 < = O = - 9 k r i c B z P n v y d Z z m $.A.F.s.!.J.P j G S j J ( U V x B b 2 ; w x ' ,...E W ' %.4.e.f.c.",
"9.o.) +.3.#.Z 7 = * * < 9 8 : O 4 N j d M =.) l K D j d M M v S L | u.#.N U C S x j K G / I D Z S 6 # = * 1 r y  .&.4.5.>.7.S.@X",
"X.@.X.Y d < - < 1 4 6 3 9 e 5 4 - a C m P v.V.Q ~ l l F b d N Y ( F 5 g n Y P a u k [ | l.$.I B b r 9 a d e 9 r ; 2 s L  .2.h.F.",
"J l 1 o @ 1 6 3 7 7 7 3 w t 4 7 6 u g d / ` [ ' 6 H V y n A b Z _ Q , . p Y k N l a Q ` A.| F J F z t d m x f l c k g a q 0 z U ",
"> ; : 1 7 9 6 2 3 3 4 7 0 w w q 3 < j 8 Z B , 1   e ( 6 A l m m ] 4 % #   t Z n h n W 2 I f F C Z f u h x M C M C C C C B M n b ",
"7 6 6 9 w e 0 7 6 6 6 7 9 0 9 7 5 5 7 j d n 5 # @ > t ! s x N P B & 2 w $ # q n x A J   &   V C C s y d j b C V H H K L P P L L ",
"r e e e e q 0 9 7 6 6 7 9 9 7 6 9 4 , l w d y   % X : L Z i K Y < f _ ^ h 4 > 4 j R H &     T S A g a j z m F J G J P Y E ! ~ ^ ",
"p p p u r w w w 5 5 5 7 9 0 9 8 9 > 0 7 u q p - X & 3 ; W z G M . M -.X.F s & . 8 Q k % @ & T l Z g d c b N H I D F J I R ! ^ ( ",
"j j h d p u u i 7 7 6 8 9 0 9 7 4 < p * t i 8 f * 3 % @ f Q f 0 @ 1 f l f 4 . : 1 ^ 7   & = G k m i p c b n A H F G K I R ! / ( ",
"x l g s p p p p e w 0 0 0 9 6 4 > 7 r < 2 z , V j - + 2 & H r * < * * $ 3 0 > 3 + A 3 o < ; L V n t y c m n C F D F J P T ! / ) ",
"m x f a p p i y t r w q q 9 6 4 > 5 9 9 , a 9 l G 6 = > = 7 0 > 7 5 8 ; 4 f q ,   : & % : & Y z M r w z n n V D Z S G P R ^ ' [ ",
"S M k f f f a u r w q w w w 9 7 2 : q 9 6 < l 9 V S $ = = % ; r q # , 8 6 3 > 8 w . # - & = _ f m 0 5 d z z m C Z S J Y ~ ] ..+."
};
