/* XPM */
static char *_0aeaf76155e4d37f68cbca104f6154cKWJzX1Zs2IhOwwb4[] = {
/* columns rows colors chars-per-pixel */
"64 62 61 1 ",
"  c #C0C0C0",
". c gainsboro",
"X c #D0D0D0",
"o c gray66",
"O c gray55",
"+ c gray33",
"@ c gray22",
"# c #484848",
"$ c gray44",
"% c #ECECEC",
"& c #989898",
"* c #646464",
"= c #2C2C2C",
"- c black",
"; c #7C7C7C",
": c #B4B4B4",
"> c #202020",
", c gray99",
"< c #5C4020",
"1 c #885830",
"2 c #FCA85C",
"3 c #FCFCB8",
"4 c #FCF400",
"5 c #B45400",
"6 c #80502C",
"7 c #FCF420",
"8 c #CC6000",
"9 c #FC9840",
"0 c #FC7800",
"q c #403018",
"w c #FCFCD8",
"e c #9C4C00",
"r c #28200C",
"t c #FCFC9C",
"y c #E46C00",
"u c #382C14",
"i c #6C4824",
"p c #FCF85C",
"a c #483818",
"s c #FC8820",
"d c #744C28",
"f c #FCB080",
"g c #A86840",
"h c #BC7848",
"j c gray19",
"k c #FC4040",
"l c #343434",
"z c #FC7C7C",
"x c #BC0000",
"c c #A40000",
"v c #640000",
"b c #FC2020",
"n c #FCB8B8",
"m c #FC9C9C",
"M c #E00000",
"N c #FC5C5C",
"B c #FC0000",
"V c #980000",
"C c #FCD8D8",
"Z c #B00000",
"A c white",
/* pixels */
" ....XX oO+@++##$ %% +& %%%%%%%%%%%%%%%XO*=%%%X$#@++++.% oOoOo$=",
".& &ooO$+@@+##-O%%  oO+oX%             &*=X%%%%X$#@@+++ooO&&o&$=",
". &o&O+@@+#OO&=&X    O+OX% ooooooooooooO*;%   X:O=&&@@+*OOooO;$=",
".&o&;+@@+#oX%% =+O ooO$+OX:ooooooooooo&*=X ooo +=&%X;+@+$O&;oo$=",
".oO;#@@+#X%%XX.O=+OoooO+O  oooooooooooO*;%oooo+=&%Xo&;+@+$Oooo$=",
".oO$@@+#X%XXooo.O=+OooO$+O OOOOOOOOOOO*=X ooo+=&%Xooo&;+@#$Ooo$=",
"Xo$#@+#o%X oooooXO=+OOO$+++++++++++++++=::oo+=&%Xooooo&*+@#+$$$=",
" O$@##++;.oooooooXO=+++++===========>==++O:$=&%Xooooooo;++@#+===",
"O$@##:%&+;o oooooO O=+@@----------------@@+=&%Xooooooo;+=@@=##@@",
"+@@#:%X%&=+;ooooO;*++----------------------++$Xooooo;+=@&&$@=@##",
"+##O%XXX% =+*;OO;@@@@--------------------->@@@OXoo;*@=o%XX:$@=@+",
"++#:X ooX% $=+**+@@----------------------->>>@@OX*+=$o%Xooo;@@=+",
"++$%Xooooo%%;==+@-------------------------->>>>@+==o%% oooo:$@=#",
"++O%XooooooX,;=------------------------------>>>-=o,. oooooo$@=@",
"+#:%XooooooO;+@-------------------------<1------>+O%% oooooo$@=@",
"+#:XXooooooO+@------23345----673,26----5438--->>>@+o%% ooooo;@>=",
"+#:OO;OOOOO;+------4390<q---67w4e<-6---q2232q-->>>+$%X ;;+++++>=",
"+@@===++++$+@-----4390rrq---ett32t346--qrq232q->>>@$+$+++======>",
"#:%%:O;====@@-----390rrrqq--ey,2y<<q6--6rqq77q-->>@>@===$ %%XO=>",
"#:%XXX%%.&+@@----439qrrr66---73y5<-----6rqq232u---->@OX%%X ::$=>",
"#:% ooooo ;@-----340rrrr8qq--742225r--r5rqi573u--=@+$ %  oooo+=>",
"#:% oooooo$@-----32errqqep<<epwwtt25r-62rii573u->=@+$ % ooooO+=>",
"#:% oooooO*@-----38errrr62p3,wwwwwp5<y2rqii573u->=@+$ % ooooO+=>",
"#:% oooooO+@-----386rrrrr62,,33333p5<-rqqii573u->=@+$ % OOOOO+=>",
"#:XoOOOOOO+@-----38irurrrr<2,4pppp45<-rqqii573u->=@+$&$+++++++=>",
"#o;++++++++@-----38irurrrrrep4pppp2<qrrqqie573u---------------=>",
"#@@==------------38ira<--rrep4222251q---qee873u->=@+$ %%%%%%XO=>",
"#:%%%%%%%X$@-----38iq<-rrrre42888851q-rqrres73u->=@+$ %     o$=>",
"#:%      O+@-----32eqdrrrrre72eee585q-rqee8273u->=@+$ % ooooo+=>",
"#:% oooooO+@-----43er1qqq-re48<11182q---e8s27fu->=@+; % ooooO+=>",
"#:% oooooO+@------3er1<a---e28q<<622q----s273du->=@+O % ooooO+=>",
"#:% oooooO+@------32<<gr---178qqr644q----2273q->>=@+& % ooooO+=>",
"#:% oooooO+@------43er<r---178qrrr4pq----277hq->>=@+& % oOOOO+=>",
"#:%oOOOOOO+@-------48<<q---<t8rrrr43q----773q-->>>@+*;$+++++++=>",
"#o;++++++++@-------42eqq---<w8rrr<43-----735q-----------------=>",
"#@@==--------------i4e<<--e333<<<3,33e---35q->==jj#$&X%%%%%%XO=>",
"#:%%%%%%%X$@---------ee---3<3,,4,443<4---5q-->==jj#$& %      $=>",
"#:%      o+@-------------4,,k,kkkk,k,k---q-->>==jl#$& % ooooo+=>",
"#:% oooooO+@-----------z,3zkkkkkkkkkkkx----->>==ll+$& % ooooO+=>",
"#:% oooooO+@----------z,zkkcvvvvvvvkkkkx---->>=jl@+$& % ooooO+=>",
"#:% oooooO+@---------z,zkcvvv-----vvvkkkx--->>=jl#+$& % ooooO+=>",
"#:%oOOOOOO+@--------bnzkc,,:--,,,,,,,:kkkv-->>=j@#+$& % ooooO+=>",
"#o;++++++++@--------mnkkv,X#--,XXXXXX#xkkxr-->=j@#+$& % oOOOO+=>",
"#@@==--------------b,zkMv,X#--,X######vNkBv--->>>>@+*;$+++++++=>",
"#:%%%%%%%X$@-------b,kkVv,X#--,X#-----vzkkVr------------------=>",
"#:%      o+@-------NCkMv-,X#--,X#------zkkZr->=jl@+$& %%%%%%XO=>",
"#:% oooooO+@-------NCkMv-,X:,,,X&,,,,:-mkkZr->=jl@#$& %     o$=>",
"#:%oOOOOOO+@-------NnkMv-,XXXXXXXXXXX#-mkkZr->=jl@#$& % ooooo+=>",
"#o;++++++++@-------BmkMv-;####&X###&X#-mkkZr->=jl@#$& % oOOOO+=>",
"#@@=---------------BzkMv------,X#--,X#-mkkZr->>>>>@+*;$+++++++=>",
"#:%%%%%%%X$@-------czkkvv-----,X#--,X#vNkkV-------------------=>",
"#:%      o+@--------bzkc<,,,,,,X#--,X#BBkbv->>=jl@#$& %%%%%%XO=>",
"#:% oooooO+@--------ckkM<,XXXXXX#--,X#ckkZv->>=jl@#$& %     o$=>",
"#:% oooooO+@---------ckkc;#######--;##kkkv-->>=jl@#$& % ooooO+=>",
"#:%oOOOOOO+@----------kkkcvvv-----vvckkkc--->>=jl@#$& % ooooO+=>",
"#o;++++++++@--------rq-kkkNNkkkkkkMnmkkc-qr->>=jl@+$& %oOOOOO+=>",
"#@@=---------------rq<<-kkkzzmmnnnmkkkc-<<qr>>>>>>@+*;$+++++++=>",
"#X%%%%%%%X$@-------rq<<<--kkkkkkkkkkk-<<<<qr------------------=>",
"#X%ooooooo+@---,,,,,333tt4<<<<<<<<<<<4ttwwwwww:-l@+$&X%%%%%%XO=>",
"#X%oOOOOOO+@---,444444444444444444444444444444O-l@+$&X% ooOOO$=>",
"#o;+++++++++-=@O+++++++++++++++++++++++++++++++=>>@+*;$+++++++=>",
"#############@+*$$$$$$$$$$$$$$$$$$$$$$$$$$$$$$*@=>##############"
};
